<?xml version="1.0" encoding="utf-8"?>
<svg xmlns="http://www.w3.org/2000/svg" fill="none" height="100%" overflow="visible" preserveAspectRatio="none" style="display: block;" viewBox="0 0 267.011 70" width="100%">
<path d="M39.6495 0.389305C42.3107 10.8856 43.4344 20.8877 42.5917 30.4257C51.8618 30.8299 60.9692 32.6567 69.5297 36.0257C70.2541 33.9144 69.8106 31.4439 68.1695 29.7668L39.6495 0.389305ZM39.1616 30.3508C38.8659 19.3904 36.3968 9.14866 30.6011 0L1.6967 29.7668C-0.417539 31.938 -0.550603 35.3968 1.26794 37.7476C13.4359 32.8364 26.4022 30.2759 39.1616 30.3508ZM69.0122 37.1337C60.5405 34.6481 51.4626 33.5251 42.1333 34.184C41.4384 38.9604 40.2261 43.6171 38.4371 48.139C44.6172 47.8545 51.0486 48.154 57.6279 49.0823L68.1399 38.2567C68.4947 37.9123 68.7757 37.538 69.0122 37.1337ZM57.4504 49.292C41.7341 49.277 30.5716 53.4995 22.4694 59.6535L30.8081 68.2481C33.0702 70.584 36.7812 70.584 39.0433 68.2481L57.4504 49.292ZM15.3136 52.2717C22.3068 49.9658 29.9358 48.5733 37.9788 48.169C38.6589 43.5123 39.0876 38.9305 39.1763 34.4535C28.9452 35.5914 18.448 38.9005 8.20204 44.9348L15.3136 52.2717ZM265.873 44.0663C263.759 45.2193 258.244 46.2824 258.702 42.539L259.574 35.3519H266.612L267.011 31.2941H260.077L260.506 27.8203H253.749L253.32 31.2941H248.397L247.998 35.3519H252.803L251.768 43.7818C250.837 51.2086 261.082 50.3102 265.089 47.6L265.873 44.0663ZM230.7 37.8973C230.818 38.7209 243.075 37.9722 240.99 33.046C238.062 28.4791 231.158 32.9711 230.7 37.8973ZM239.777 27.5658C252.123 29.2128 245.056 44.0364 230.685 41.6856C230.877 47.8545 242.217 45.1594 244.923 44.231L244.257 47.9144C236.525 50.9989 223.115 50.6995 223.751 38.7807C224.179 30.9348 232.474 26.5925 239.777 27.5658ZM142.434 42.6888C142.286 44.7551 146.707 45.0545 150.137 43.9615C153.079 43.0182 155.725 38.107 153.212 34.8578C151.216 32.2674 145.051 32.2973 143.04 35.3968L142.434 42.6888ZM157.426 30.6053C165.365 38.6909 156.154 53.0652 141.872 48.4834L140.881 58.6802H134.302L136.638 33.9444C138.545 28.2396 152.148 25.2299 157.426 30.6053ZM95.0632 35.2021C91.4704 33.031 90.0067 31.354 89.9476 29.5722C89.918 28.539 90.8495 27.5658 92.0766 27.1615C95.5215 26.0684 98.7446 27.3262 101.125 28.1797L103.683 24.3615C99.8682 22.6845 92.0027 20.3337 86.9463 23.3433C80.2044 27.3562 83.5753 34.2289 87.375 36.5947C89.5336 37.9422 93.5847 40.5626 92.9489 42.7786C91.6922 46.9561 84.3293 45.6984 82.5699 45.0695C81.2541 44.5904 80.2931 44.1861 79.406 43.4824L79.199 48.9626C80.4261 49.3219 81.8011 49.5615 83.3092 49.846C96.7043 52.3016 107.793 42.8984 95.0632 35.2021ZM132.144 49.4866L134.79 22.3102H127.974L125.328 49.4866H132.144ZM168.633 49.4866L171.279 22.3102H164.463L161.817 49.4866H168.633ZM193.249 49.4866L194.817 33.7647C195.792 24.062 170.643 26.4128 172.122 42.1947C172.846 49.9209 180.534 49.7711 184.438 48.8428L184.837 44.9947C173.009 46.0128 178.612 30.4406 188.385 33.8695L186.641 49.5016H193.249V49.4866ZM220.217 49.4866L221.666 33.9444C222.42 25.8588 208.951 27.3262 204.693 31.8182L205.077 27.9102H198.306L196.177 49.5016H202.978L204.072 38.0171C204.663 31.5786 215.205 30.9647 214.688 36.2503L213.386 49.5166H220.217V49.4866ZM117.861 41.9102L122.696 43.9914C120.863 47.4053 117.374 49.7561 113.308 49.7561C107.364 49.7561 102.544 44.785 102.544 38.661C102.544 32.5369 107.364 27.5807 113.308 27.5807C119.251 27.5807 124.071 32.5519 124.071 38.661C124.071 40.6075 123.539 42.3893 122.696 43.9914L118.275 41.1914C117.329 40.2781 117.788 39.2749 118.97 39.1102L123.997 38.7807L118.867 38.3016C117.669 38.1519 117.462 36.969 118.024 36.5048L122.667 33.3754L117.536 35.6214C116.738 35.7861 116.117 35.262 116.324 34.4984L118.837 29.2428L115.496 33.8695C114.845 34.4834 113.958 34.2139 113.855 33.2406L113.337 27.6556L112.82 33.2406C112.716 34.1989 111.829 34.4834 111.179 33.8695L107.837 29.2428L110.351 34.4984C110.543 35.262 109.922 35.7861 109.138 35.6214L104.008 33.3754L108.65 36.5048C109.212 36.969 109.005 38.1519 107.808 38.3016L102.677 38.7807L107.719 39.1102C108.887 39.2749 109.345 40.2781 108.399 41.1914L103.978 44.0064L108.813 41.9102C110.144 41.5059 110.632 42.569 110.129 43.5273L107.985 48.184L111.001 43.9615C111.519 43.108 112.702 43.0781 112.864 44.231L113.352 49.6813L113.825 44.231C113.973 43.0781 115.156 43.108 115.688 43.9615L118.704 48.184L116.56 43.5273C116.043 42.569 116.531 41.5059 117.861 41.9102Z" fill="var(--fill-0, white)" id="Vector"/>
</svg>