<?xml version="1.0" encoding="utf-8"?>
<svg xmlns="http://www.w3.org/2000/svg" fill="none" height="100%" overflow="visible" preserveAspectRatio="none" style="display: block;" viewBox="0 0 188.5 733.66" width="100%">
<path d="M124.093 8C124.093 12.4183 127.675 16 132.093 16C136.512 16 140.093 12.4183 140.093 8C140.093 3.58172 136.512 0 132.093 0C127.675 0 124.093 3.58172 124.093 8ZM0 725L15 733.66V716.34L0 725ZM14.6125 725V726.5H27.1375V725V723.5H14.6125V725ZM35.4875 725V726.5H48.0125V725V723.5H35.4875V725ZM56.3625 725V726.5H68.8875V725V723.5H56.3625V725ZM77.2375 725V726.5H89.7625V725V723.5H77.2375V725ZM98.1125 725V726.5H110.638V725V723.5H98.1125V725ZM118.988 725V726.5H131.512V725V723.5H118.988V725ZM139.863 725V726.5H152.387V725V723.5H139.863V725ZM160.738 725V726.5H167V725V723.5H160.738V725ZM167 725V726.5C168.727 726.5 170.408 726.296 172.02 725.91L171.671 724.452L171.322 722.993C169.937 723.324 168.49 723.5 167 723.5V725ZM177.451 722.055L178.236 723.334C181.124 721.56 183.56 719.124 185.334 716.236L184.055 715.451L182.777 714.666C181.251 717.152 179.152 719.25 176.666 720.777L177.451 722.055ZM186.452 709.671L187.91 710.02C188.296 708.408 188.5 706.727 188.5 705H187H185.5C185.5 706.49 185.324 707.937 184.993 709.322L186.452 709.671ZM187 705H188.5V699.026H187H185.5V705H187ZM187 691.062H188.5V679.115H187H185.5V691.062H187ZM187 671.15H188.5V659.203H187H185.5V671.15H187ZM187 651.238H188.5V639.291H187H185.5V651.238H187ZM187 631.326H188.5V619.379H187H185.5V631.326H187ZM187 611.415H188.5V599.468H187H185.5V611.415H187ZM187 591.503H188.5V579.556H187H185.5V591.503H187ZM187 571.591H188.5V559.644H187H185.5V571.591H187ZM187 551.679H188.5V539.732H187H185.5V551.679H187ZM187 531.768H188.5V519.821H187H185.5V531.768H187ZM187 511.856H188.5V499.909H187H185.5V511.856H187ZM187 491.944H188.5V479.997H187H185.5V491.944H187ZM187 472.032H188.5V460.085H187H185.5V472.032H187ZM187 452.121H188.5V440.174H187H185.5V452.121H187ZM187 432.209H188.5V420.262H187H185.5V432.209H187ZM187 412.297H188.5V400.35H187H185.5V412.297H187ZM187 392.385H188.5V380.438H187H185.5V392.385H187ZM187 372.474H188.5V360.527H187H185.5V372.474H187ZM187 352.562H188.5V340.615H187H185.5V352.562H187ZM187 332.65H188.5V320.703H187H185.5V332.65H187ZM187 312.738H188.5V300.791H187H185.5V312.738H187ZM187 292.827H188.5V280.88H187H185.5V292.827H187ZM187 272.915H188.5V260.968H187H185.5V272.915H187ZM187 253.003H188.5V241.056H187H185.5V253.003H187ZM187 233.091H188.5V221.144H187H185.5V233.091H187ZM187 213.18H188.5V201.233H187H185.5V213.18H187ZM187 193.268H188.5V181.321H187H185.5V193.268H187ZM187 173.356H188.5V161.409H187H185.5V173.356H187ZM187 153.444H188.5V141.497H187H185.5V153.444H187ZM187 133.533H188.5V121.585H187H185.5V133.533H187ZM187 113.621H188.5V101.674H187H185.5V113.621H187ZM187 93.7089H188.5V81.7618H187H185.5V93.7089H187ZM187 73.7971H188.5V61.85H187H185.5V73.7971H187ZM187 53.8853H188.5V41.9382H187H185.5V53.8853H187ZM187 33.9735H188.5V28H187H185.5V33.9735H187ZM187 28H188.5C188.5 26.2732 188.296 24.592 187.91 22.98L186.452 23.3291L184.993 23.6781C185.324 25.0631 185.5 26.51 185.5 28H187ZM184.055 17.5488L185.334 16.7639C183.56 13.876 181.124 11.4398 178.236 9.66639L177.451 10.9446L176.666 12.2228C179.152 13.7495 181.25 15.8477 182.777 18.3337L184.055 17.5488ZM171.671 8.54838L172.02 7.08955C170.408 6.70388 168.727 6.5 167 6.5V8V9.5C168.49 9.5 169.937 9.67583 171.322 10.0072L171.671 8.54838ZM167 8V6.5H161.764V8V9.5H167V8ZM154.783 8V6.5H144.311V8V9.5H154.783V8ZM137.329 8V6.5H132.093V8V9.5H137.329V8Z" fill="var(--stroke-0, white)" id="Vector 1292"/>
</svg>