<?xml version="1.0" encoding="utf-8"?>
<svg xmlns="http://www.w3.org/2000/svg" fill="none" height="100%" overflow="visible" preserveAspectRatio="none" style="display: block;" viewBox="0 0 15.8305 15.8304" width="100%">
<path d="M9.6546 0C11.2663 0 12.8403 0.634981 14.0179 1.8125C15.1917 2.98635 15.8248 4.56262 15.8245 6.16992L15.8304 9.60547C15.8412 11.2389 15.2112 12.834 14.0228 14.0225C12.8343 15.2109 11.2338 15.8463 9.60577 15.8301H6.22491C4.59144 15.8409 2.99542 15.2109 1.80695 14.0225C0.618713 12.834 -0.0159733 11.2333 0.000305504 9.60547V6.22461C-0.0154317 4.59119 0.614215 2.99608 1.79718 1.80762C2.97478 0.635443 4.54286 2.03139e-05 6.1546 0H9.6546ZM11.6253 12.0205C10.5183 12.3895 9.30783 12.4438 8.16827 12.1562C8.00004 12.1128 7.82576 12.1128 7.65753 12.1562C6.51817 12.4437 5.3083 12.3948 4.20148 12.0205C4.10936 11.988 4.01693 12.0798 4.05988 12.1719C4.36378 12.8502 4.78727 13.4696 5.32452 14.0068C5.9539 14.6416 6.72438 15.1297 7.55988 15.4336C7.79316 15.5204 8.04294 15.5203 8.27081 15.4336C9.10653 15.1297 9.87221 14.6418 10.5071 14.0068C11.0444 13.4696 11.4679 12.8557 11.7718 12.1719C11.8146 12.0745 11.7227 11.9829 11.6253 12.0205ZM8.27081 3.89648C8.03754 3.80976 7.78771 3.80969 7.55988 3.89648C6.7244 4.20035 5.95932 4.69396 5.32452 5.32324C4.68959 5.95275 4.20069 6.72384 3.89679 7.55957C3.81002 7.79286 3.81001 8.04264 3.89679 8.27051C4.19524 9.1116 4.68966 9.87638 5.32452 10.5059C5.95396 11.1407 6.72426 11.6297 7.55988 11.9336C7.79313 12.0204 8.04297 12.0203 8.27081 11.9336C9.10654 11.6297 9.8722 11.1408 10.5071 10.5059C11.1419 9.87644 11.63 9.10605 11.9339 8.27051C12.0099 8.04258 12.0099 7.79292 11.9339 7.55957C11.63 6.72388 11.1421 5.95815 10.5071 5.32324C9.87766 4.68838 9.10647 4.20036 8.27081 3.89648ZM12.1673 4.06445C12.0806 4.02143 11.9834 4.1085 12.0159 4.20605C12.3849 5.31304 12.4338 6.52357 12.1517 7.66309C12.1083 7.83122 12.1083 8.00472 12.1517 8.17285C12.4393 9.31244 12.3849 10.5229 12.0159 11.6299C11.9835 11.7221 12.0751 11.8137 12.1673 11.7705C12.8511 11.4666 13.465 11.0431 14.0023 10.5059C14.637 9.87644 15.1252 9.10602 15.429 8.27051C15.5104 8.0427 15.5103 7.79326 15.429 7.56543C15.1251 6.72978 14.6371 5.964 14.0023 5.3291C13.465 4.79185 12.8511 4.36835 12.1673 4.06445ZM3.65851 4.05371C2.97481 4.35758 2.36174 4.78119 1.82452 5.31836C1.18968 5.94778 0.700701 6.71812 0.39679 7.55371C0.310006 7.78694 0.310097 8.03682 0.39679 8.26465C0.700692 9.10038 1.18959 9.86604 1.82452 10.501C2.36172 11.0381 2.97484 11.4618 3.65851 11.7656C3.74528 11.8088 3.84241 11.7216 3.80988 11.624C3.44095 10.517 3.39294 9.30651 3.67511 8.16699C3.7184 7.99894 3.71846 7.82527 3.67511 7.65723C3.39838 6.51775 3.44099 5.31853 3.80988 4.19531C3.84242 4.10312 3.7507 4.0105 3.65851 4.05371ZM15.6194 7.98242C15.6247 8.04584 15.6304 8.10944 15.6507 8.17285C15.6351 8.10949 15.6247 8.04579 15.6194 7.98242ZM0.174134 7.65723C0.190412 7.72234 0.201909 7.78743 0.207337 7.85254C0.201911 7.78743 0.195838 7.72234 0.174134 7.65723ZM8.26593 0.401367C8.03266 0.314569 7.78285 0.31463 7.55499 0.401367C6.71926 0.705269 5.9536 1.19416 5.31866 1.8291C4.78154 2.36629 4.35787 2.97942 4.05402 3.66309C4.01078 3.76071 4.10385 3.8534 4.20148 3.81543C5.30838 3.44653 6.51808 3.3976 7.65753 3.67969C7.82576 3.7231 8.00004 3.7231 8.16827 3.67969C9.30786 3.39211 10.5183 3.44642 11.6253 3.81543C11.7174 3.84752 11.8093 3.75519 11.7659 3.66309C11.462 2.97932 11.0385 2.36635 10.5013 1.8291C9.8718 1.1942 9.10161 0.705271 8.26593 0.401367Z" fill="var(--fill-0, black)" id="Left Logo"/>
</svg>