<?xml version="1.0" encoding="utf-8"?>
<svg xmlns="http://www.w3.org/2000/svg" fill="none" height="100%" overflow="visible" preserveAspectRatio="none" style="display: block;" viewBox="0 0 15.8576 15.8576" width="100%">
<g id="Right logo">
<path d="M7.92969 0C9.18371 0.000223344 10.2001 1.00792 10.2002 2.25098C10.2002 2.32976 10.1955 2.40768 10.1875 2.48438C10.2357 2.42532 10.2877 2.36852 10.3428 2.31348C11.2219 1.43435 12.6472 1.43435 13.5264 2.31348C14.4055 3.1926 14.4055 4.61794 13.5264 5.49707C13.457 5.56648 13.3823 5.62807 13.3066 5.68652C13.4048 5.67344 13.5047 5.66504 13.6064 5.66504C14.8497 5.66504 15.8574 6.67274 15.8574 7.91602C15.8573 9.15921 14.8497 10.167 13.6064 10.167C13.4951 10.167 13.3863 10.1553 13.2793 10.1396C13.368 10.2053 13.4547 10.276 13.5352 10.3564C14.4143 11.2356 14.4143 12.6609 13.5352 13.54C12.656 14.4192 11.2307 14.4192 10.3516 13.54C10.2876 13.4761 10.2295 13.4082 10.1748 13.3389C10.1852 13.4267 10.1924 13.5158 10.1924 13.6064C10.1924 14.8497 9.18468 15.8574 7.94141 15.8574C6.69821 15.8573 5.69043 14.8497 5.69043 13.6064C5.69044 13.5135 5.69706 13.422 5.70801 13.332C5.65009 13.407 5.58925 13.4811 5.52051 13.5498C4.64152 14.4288 3.21018 14.4226 2.32324 13.5361C1.43634 12.6492 1.42947 11.217 2.30859 10.3379C2.36165 10.2848 2.4168 10.2351 2.47363 10.1885C2.40044 10.1957 2.32605 10.2002 2.25098 10.2002C1.00781 10.2001 0 9.18291 0 7.92871C0.000120166 6.67461 1.00788 5.65833 2.25098 5.6582C2.31675 5.6582 2.38195 5.66239 2.44629 5.66797C2.39584 5.62571 2.34623 5.58159 2.29883 5.53418C1.41984 4.65519 1.42601 3.22385 2.3125 2.33691C3.19941 1.45001 4.63161 1.44314 5.51074 2.32227C5.56883 2.38035 5.6225 2.44132 5.67285 2.50391C5.66349 2.42091 5.6582 2.33644 5.6582 2.25098C5.6583 1.00778 6.67547 0 7.92969 0ZM6.14746 3.64453C6.22547 4.31045 6.00974 5.00687 5.49609 5.52051C4.9994 6.01695 4.33207 6.23626 3.68652 6.17969C4.18472 6.59621 4.50189 7.22495 4.50195 7.92871C4.50195 8.64248 4.17547 9.27897 3.66504 9.69531C4.32046 9.62868 5.00204 9.84774 5.50684 10.3525C6.02266 10.8686 6.23748 11.5687 6.15625 12.2373C6.56773 11.7016 7.21373 11.3555 7.94141 11.3555C8.6591 11.3555 9.29677 11.6927 9.70898 12.2158C9.63019 11.5541 9.84379 10.8642 10.3516 10.3564C10.8739 9.83411 11.5887 9.6243 12.2676 9.72266C11.715 9.31249 11.3555 8.65705 11.3555 7.91602C11.3555 7.19007 11.6999 6.54544 12.2334 6.13379C11.5621 6.2233 10.8586 6.01291 10.3428 5.49707C9.841 4.9953 9.62626 4.31566 9.69727 3.66113C9.28106 4.17324 8.64474 4.50183 7.92969 4.50195C7.20666 4.50195 6.56338 4.16638 6.14746 3.64453Z" fill="var(--fill-0, black)" id="Right logo_2"/>
</g>
</svg>