<?xml version="1.0" encoding="utf-8"?>
<svg xmlns="http://www.w3.org/2000/svg" fill="none" height="100%" overflow="visible" preserveAspectRatio="none" style="display: block;" viewBox="0 0 15.8305 15.8304" width="100%">
<path d="M9.65558 0C11.2673 0 12.8412 0.63488 14.0189 1.8125C15.2073 3.00097 15.8418 4.60244 15.8255 6.23047L15.8304 9.60547C15.8412 11.2388 15.212 12.834 14.0237 14.0225C12.8353 15.2109 11.2338 15.8464 9.60577 15.8301H6.22491C4.59158 15.8408 2.9963 15.2108 1.80792 14.0225C0.619573 12.834 -0.0159732 11.2334 0.000305085 9.60547V6.22461C-0.0154308 4.59133 0.614411 2.99605 1.79718 1.80762C2.9748 0.635424 4.54381 0 6.15558 0H9.65558ZM11.6253 12.0205C10.5183 12.3895 9.30783 12.4439 8.16827 12.1562C8.00014 12.1129 7.82664 12.1129 7.65851 12.1562C6.51889 12.4439 5.30853 12.395 4.20148 12.0205C4.10935 11.9881 4.01776 12.0797 4.06085 12.1719C4.36473 12.8502 4.78733 13.4696 5.32452 14.0068C5.95402 14.6418 6.72515 15.1297 7.56085 15.4336C7.79421 15.5204 8.04386 15.5204 8.27179 15.4336C9.10732 15.1297 9.8723 14.6416 10.5071 14.0068C11.0444 13.4696 11.4679 12.8557 11.7718 12.1719C11.8149 12.0743 11.7229 11.9826 11.6253 12.0205ZM8.27179 3.89648C8.03844 3.80966 7.78878 3.80966 7.56085 3.89648C6.72512 4.20039 5.95946 4.69373 5.32452 5.32324C4.68959 5.95275 4.20167 6.72384 3.89777 7.55957C3.81094 7.79292 3.81094 8.04258 3.89777 8.27051C4.19617 9.11144 4.68982 9.87645 5.32452 10.5059C5.95403 11.1408 6.72512 11.6297 7.56085 11.9336C7.7942 12.0204 8.04387 12.0204 8.27179 11.9336C9.10751 11.6297 9.87221 11.1408 10.5071 10.5059C11.1421 9.87635 11.631 9.10623 11.9349 8.27051C12.0108 8.04259 12.0108 7.79292 11.9349 7.55957C11.631 6.72384 11.1421 5.95818 10.5071 5.32324C9.87773 4.68854 9.1073 4.20031 8.27179 3.89648ZM12.1683 4.06445C12.0815 4.02108 11.9834 4.10839 12.0159 4.20605C12.3849 5.31309 12.4339 6.5235 12.1517 7.66309C12.1084 7.83118 12.1083 8.00477 12.1517 8.17285C12.4393 9.31248 12.385 10.5228 12.0159 11.6299C11.9837 11.722 12.0761 11.8139 12.1683 11.7705C12.852 11.4666 13.465 11.0431 14.0023 10.5059C14.6371 9.87637 15.1261 9.10618 15.43 8.27051C15.5113 8.04276 15.5112 7.79321 15.43 7.56543C15.1261 6.7297 14.6372 5.96404 14.0023 5.3291C13.465 4.79191 12.852 4.36833 12.1683 4.06445ZM3.65851 4.05371C2.97486 4.3576 2.36169 4.78119 1.82452 5.31836C1.18977 5.94773 0.701661 6.71822 0.397766 7.55371C0.310967 7.78698 0.311027 8.03679 0.397766 8.26465C0.701661 9.10036 1.18961 9.86605 1.82452 10.501C2.36171 11.0382 2.97484 11.4617 3.65851 11.7656C3.74534 11.809 3.84341 11.7217 3.81085 11.624C3.44189 10.517 3.39293 9.30655 3.67511 8.16699C3.71844 7.99886 3.7185 7.82535 3.67511 7.65723C3.39838 6.51773 3.44194 5.31855 3.81085 4.19531C3.84341 4.10306 3.75076 4.0103 3.65851 4.05371ZM15.6194 7.98242C15.6247 8.04587 15.6313 8.1094 15.6517 8.17285C15.6361 8.10946 15.6247 8.04582 15.6194 7.98242ZM0.17511 7.65723C0.19138 7.72231 0.201908 7.78745 0.207336 7.85254C0.201913 7.78746 0.196797 7.72231 0.17511 7.65723ZM8.26593 0.401367C8.0327 0.314693 7.78278 0.31459 7.55499 0.401367C6.71938 0.705277 5.9545 1.19424 5.31964 1.8291C4.78243 2.36633 4.35888 2.97935 4.05499 3.66309C4.01165 3.76067 4.1039 3.85314 4.20148 3.81543C5.30855 3.44641 6.51888 3.39749 7.65851 3.67969C7.82658 3.72305 8.00019 3.72299 8.16827 3.67969C9.30788 3.39207 10.5183 3.44643 11.6253 3.81543C11.7175 3.84798 11.8102 3.75531 11.7669 3.66309C11.463 2.97938 11.0394 2.36631 10.5023 1.8291C9.87275 1.19416 9.10166 0.705269 8.26593 0.401367Z" fill="var(--fill-0, black)" id="Left Logo"/>
</svg>