<?xml version="1.0" encoding="utf-8"?>
<svg xmlns="http://www.w3.org/2000/svg" fill="none" height="100%" overflow="visible" preserveAspectRatio="none" style="display: block;" viewBox="0 0 15.8305 15.8304" width="100%">
<path d="M9.65558 0C11.2672 7.76719e-05 12.8413 0.634952 14.0189 1.8125C15.2072 3.00095 15.8418 4.60251 15.8255 6.23047L15.8304 9.60547C15.8412 11.2387 15.2119 12.834 14.0237 14.0225C12.8353 15.2109 11.2338 15.8464 9.60577 15.8301H6.22491C4.59147 15.8409 2.99638 15.2109 1.80792 14.0225C0.619474 12.834 -0.0159746 11.2335 0.000305187 9.60547V6.22461C-0.0154314 4.59126 0.614313 2.99606 1.79718 1.80762C2.97471 0.635517 4.54297 0.000100539 6.1546 0H9.65558ZM11.6253 12.0205C10.5182 12.3895 9.30791 12.4439 8.16827 12.1562C8.00012 12.1129 7.82666 12.1129 7.65851 12.1562C6.51893 12.4439 5.3085 12.3949 4.20148 12.0205C4.1094 11.988 4.01706 12.0798 4.05988 12.1719C4.36378 12.8502 4.78727 13.4696 5.32452 14.0068C5.95403 14.6418 6.72514 15.1297 7.56085 15.4336C7.79415 15.5204 8.04393 15.5204 8.27179 15.4336C9.10729 15.1297 9.87234 14.6416 10.5071 14.0068C11.0444 13.4696 11.4679 12.8557 11.7718 12.1719C11.8147 12.0744 11.7228 11.9826 11.6253 12.0205ZM8.27179 3.89648C8.03853 3.80969 7.78871 3.80976 7.56085 3.89648C6.72519 4.20036 5.95943 4.6938 5.32452 5.32324C4.68961 5.95273 4.20167 6.72388 3.89777 7.55957C3.81094 7.79292 3.81094 8.04258 3.89777 8.27051C4.1962 9.11147 4.68977 9.87644 5.32452 10.5059C5.95403 11.1408 6.72512 11.6297 7.56085 11.9336C7.79412 12.0203 8.04396 12.0204 8.27179 11.9336C9.1074 11.6297 9.87228 11.1407 10.5071 10.5059C11.142 9.87638 11.631 9.10617 11.9349 8.27051C12.0108 8.04263 12.0108 7.79287 11.9349 7.55957C11.631 6.72384 11.1421 5.95818 10.5071 5.32324C9.87777 4.68854 9.10726 4.20034 8.27179 3.89648ZM12.1683 4.06445C12.0814 4.02104 11.9834 4.10837 12.0159 4.20605C12.3849 5.31306 12.4338 6.52354 12.1517 7.66309C12.1084 7.8312 12.1083 8.00475 12.1517 8.17285C12.4393 9.31246 12.3849 10.5228 12.0159 11.6299C11.9836 11.7221 12.0761 11.8139 12.1683 11.7705C12.8519 11.4666 13.4651 11.043 14.0023 10.5059C14.637 9.87644 15.1252 9.10605 15.429 8.27051C15.5104 8.04267 15.5103 7.79328 15.429 7.56543C15.1251 6.72971 14.6372 5.96403 14.0023 5.3291C13.4651 4.79191 12.852 4.36835 12.1683 4.06445ZM3.65851 4.05371C2.97477 4.3576 2.36175 4.78114 1.82452 5.31836C1.18965 5.9478 0.700698 6.71808 0.39679 7.55371C0.310019 7.78691 0.310135 8.03685 0.39679 8.26465C0.700691 9.10038 1.18959 9.86604 1.82452 10.501C2.36175 11.0382 2.97478 11.4617 3.65851 11.7656C3.74534 11.809 3.84341 11.7217 3.81085 11.624C3.44187 10.517 3.39293 9.30658 3.67511 8.16699C3.71842 7.99889 3.71848 7.82532 3.67511 7.65723C3.39836 6.51769 3.44191 5.31859 3.81085 4.19531C3.84341 4.10306 3.75076 4.0103 3.65851 4.05371ZM15.6194 7.98242C15.6247 8.04581 15.6304 8.10947 15.6507 8.17285C15.6351 8.10951 15.6247 8.04576 15.6194 7.98242ZM0.17511 7.65723C0.191372 7.7223 0.201911 7.78747 0.207336 7.85254C0.201915 7.78748 0.196775 7.72229 0.17511 7.65723ZM8.26593 0.401367C8.03262 0.314593 7.78287 0.314556 7.55499 0.401367C6.7193 0.70526 5.95456 1.1942 5.31964 1.8291C4.78241 2.36633 4.35889 2.97934 4.05499 3.66309C4.01158 3.76077 4.10379 3.85342 4.20148 3.81543C5.30854 3.44641 6.51888 3.39749 7.65851 3.67969C7.82659 3.723 8.0002 3.72304 8.16827 3.67969C9.30791 3.39207 10.5182 3.44641 11.6253 3.81543C11.7175 3.84779 11.8093 3.75528 11.7659 3.66309C11.4621 2.97951 11.0393 2.36624 10.5023 1.8291C9.87275 1.19416 9.10166 0.705269 8.26593 0.401367Z" fill="var(--fill-0, black)" id="Left Logo"/>
</svg>