<?xml version="1.0" encoding="utf-8"?>
<svg xmlns="http://www.w3.org/2000/svg" fill="none" height="100%" overflow="visible" preserveAspectRatio="none" style="display: block;" viewBox="0 0 278.306 42.112" width="100%">
<g id="Group">
<path d="M128.656 23.981C123.853 32.0533 112.972 31.2461 112.905 20.9875C112.905 16.4804 115.155 12.5788 119.152 12.5788C122.611 12.5788 124.29 15.4041 124.29 17.4895H132.048C131.007 0.57122 104.375 1.6139 105.046 21.122C105.147 38.5784 124.827 40.3611 132.317 30.4388H142.828V35.7868H150.586V6.25549H139.839C139.839 6.25549 131.443 20.0121 128.589 23.981H128.656ZM142.862 15.0341V24.4182H136.347C139.268 19.7766 142.224 15.0341 142.224 15.0341H142.862ZM152.198 6.25549V12.7134H159.553V35.7868H167.311V12.7134H174.666V6.25549H152.165H152.198ZM194.111 17.4895H184.17V6.25549H176.412V35.8204H184.17V24.0146H194.111V35.8204H201.869V6.25549H194.111V17.4895ZM211.541 6.25549H203.783V35.8204H222.926V29.1944H211.541V6.25549ZM247.375 9.68623C243.01 4.9101 234.479 4.54012 229.039 7.56724C221.818 11.6034 220.441 21.3575 223.497 28.488C227.863 37.973 242.204 38.9484 248.45 31.3134C253.085 25.4273 253.051 14.7987 247.375 9.68623ZM239.08 29.1607C235.89 30.0352 232.162 28.9589 230.751 25.73C228.837 21.0548 229.878 13.0497 236.091 12.6461C240.121 12.0743 243.58 15.3369 243.782 19.3058C244.219 23.0728 243.345 27.9835 239.08 29.1607ZM270.448 6.25549V22.2656L261.145 6.25549H253.286V35.8204H261.145V19.8103L270.481 35.8877L278.306 35.8204V6.25549H270.448ZM69.4472 6.25549H57.9279V35.8204H69.4472C88.1535 36.1567 88.1535 5.88551 69.4472 6.25549ZM69.8167 29.1607H65.7194V12.9152H69.8167C77.4738 12.7806 77.4738 29.2953 69.8167 29.1607Z" fill="var(--fill-0, #3743BB)" id="Vector"/>
<path d="M105.013 12.8816V6.25554H84.9967V35.8205H105.013V29.1944H92.721V24.1156H103.569V17.9604H92.721V12.9152H105.013V12.8816ZM47.9535 4.74198C42.7815 -2.59039 28.2397 -1.27864 15.4777 7.70183C-12.6657 28.0172 0.532829 53.9496 31.3294 36.1904V8.13908C17.4256 29.3962 7.21605 38.7467 3.99198 31.0107C0.465661 18.2295 34.0161 -4.91118 42.7815 6.18827C45.569 10.1572 42.6136 17.2877 36.0983 23.712V32.8942C47.5505 23.981 52.8232 11.7044 47.9535 4.70834V4.74198Z" fill="var(--fill-0, #3743BB)" id="Vector_2"/>
</g>
</svg>