<?xml version="1.0" encoding="utf-8"?>
<svg xmlns="http://www.w3.org/2000/svg" fill="none" height="100%" overflow="visible" preserveAspectRatio="none" style="display: block;" viewBox="0 0 238.01 62" width="100%">
<path d="M35.343 0.344813C37.7152 9.6415 38.7168 18.5005 37.9656 26.9485C46.2288 27.3065 54.3471 28.9245 61.9778 31.9084C62.6235 30.0385 62.2282 27.8503 60.7653 26.3649L35.343 0.344813ZM34.9081 26.8821C34.6445 17.1743 32.4436 8.1031 27.2774 0L1.51241 26.3649C-0.372189 28.2879 -0.4908 31.3514 1.13022 33.4336C11.9766 29.0836 23.5346 26.8158 34.9081 26.8821ZM61.5165 32.8898C53.9649 30.6883 45.873 29.6937 37.557 30.2772C36.9376 34.5078 35.8569 38.6323 34.2623 42.6374C39.7711 42.3855 45.504 42.6507 51.3687 43.4729L60.7389 33.8845C61.0552 33.5795 61.3056 33.2479 61.5165 32.8898ZM51.2105 43.6586C37.2012 43.6453 27.251 47.3852 20.0289 52.8359L27.4619 60.4483C29.4783 62.5172 32.7862 62.5172 34.8026 60.4483L51.2105 43.6586ZM13.6503 46.2978C19.884 44.2554 26.6844 43.022 33.8537 42.664C34.46 38.5395 34.8422 34.4813 34.9212 30.5159C25.8014 31.5239 16.4442 34.4548 7.31118 39.7994L13.6503 46.2978ZM236.995 39.0302C235.111 40.0513 230.195 40.9929 230.603 37.6774L231.381 31.3117H237.654L238.01 27.7176H231.829L232.211 24.6409H226.188L225.806 27.7176H221.418L221.062 31.3117H225.345L224.422 38.7782C223.592 45.3562 232.725 44.5604 236.297 42.16L236.995 39.0302ZM205.642 33.5662C205.748 34.2956 216.673 33.6325 214.815 29.2693C212.205 25.2244 206.051 29.203 205.642 33.5662ZM213.734 24.4154C224.739 25.8742 218.439 39.0036 205.629 36.9215C205.8 42.3855 215.909 39.9983 218.321 39.176L217.727 42.4385C210.835 45.1705 198.881 44.9052 199.448 34.3487C199.83 27.3994 207.224 23.5534 213.734 24.4154ZM126.964 37.8101C126.832 39.6402 130.772 39.9055 133.83 38.9373C136.452 38.1018 138.811 33.7519 136.571 30.874C134.792 28.5797 129.296 28.6062 127.504 31.3514L126.964 37.8101ZM140.327 27.1076C147.404 34.2691 139.194 47.0006 126.463 42.9425L125.58 51.9739H119.715L121.797 30.065C123.497 25.0122 135.622 22.3465 140.327 27.1076ZM84.738 31.179C81.5355 29.256 80.2307 27.7707 80.178 26.1925C80.1517 25.2774 80.9819 24.4154 82.0758 24.0573C85.1465 23.0892 88.0195 24.2032 90.1413 24.9591L92.4213 21.5773C89.0211 20.092 82.0099 18.0098 77.5027 20.6755C71.493 24.2297 74.4978 30.317 77.8849 32.4124C79.809 33.606 83.42 35.9268 82.8533 37.8896C81.7331 41.5897 75.17 40.4757 73.6017 39.9187C72.4287 39.4943 71.5721 39.1363 70.7814 38.5129L70.5969 43.3668C71.6907 43.6851 72.9164 43.8973 74.2606 44.1493C86.2008 46.3243 96.0851 37.9957 84.738 31.179ZM117.791 43.831L120.15 19.7604H114.074L111.715 43.831H117.791ZM150.317 43.831L152.676 19.7604H146.6L144.241 43.831H150.317ZM172.26 43.831L173.657 29.9059C174.527 21.3121 152.109 23.3942 153.427 37.3724C154.073 44.2156 160.926 44.083 164.405 43.2607L164.761 39.8524C154.218 40.7542 159.213 26.9617 167.924 29.9987L166.369 43.8443H172.26V43.831ZM196.298 43.831L197.59 30.065C198.262 22.9035 186.256 24.2032 182.46 28.1818L182.803 24.7204H176.767L174.869 43.8443H180.932L181.907 33.6723C182.434 27.9696 191.831 27.4259 191.369 32.1074L190.21 43.8575H196.298V43.831ZM105.06 37.1204L109.37 38.9638C107.735 41.9876 104.625 44.0697 101.001 44.0697C95.7029 44.0697 91.4065 39.6667 91.4065 34.2426C91.4065 28.8184 95.7029 24.4287 101.001 24.4287C106.299 24.4287 110.595 28.8317 110.595 34.2426C110.595 35.9666 110.121 37.5448 109.37 38.9638L105.429 36.4839C104.586 35.6749 104.994 34.7863 106.048 34.6404L110.529 34.3487L105.956 33.9243C104.889 33.7917 104.704 32.744 105.205 32.3328L109.343 29.5611L104.77 31.5504C104.058 31.6963 103.505 31.2321 103.689 30.5557L105.93 25.9007L102.951 29.9987C102.371 30.5425 101.581 30.3037 101.488 29.4417L101.027 24.495L100.566 29.4417C100.474 30.2905 99.683 30.5425 99.1031 29.9987L96.1246 25.9007L98.3651 30.5557C98.5364 31.2321 97.9829 31.6963 97.2844 31.5504L92.7113 29.5611L96.8495 32.3328C97.3503 32.744 97.1658 33.7917 96.0983 33.9243L91.5251 34.3487L96.0192 34.6404C97.0603 34.7863 97.4689 35.6749 96.6254 36.4839L92.6849 38.9771L96.9944 37.1204C98.1806 36.7624 98.6155 37.704 98.1674 38.5527L96.2564 42.6772L98.9449 38.9373C99.4062 38.1814 100.461 38.1549 100.605 39.176L101.04 44.0034L101.462 39.176C101.594 38.1549 102.648 38.1814 103.123 38.9373L105.811 42.6772L103.9 38.5527C103.439 37.704 103.874 36.7624 105.06 37.1204Z" fill="url(#paint0_linear_0_1180)" id="Vector"/>
<defs>
<linearGradient gradientUnits="userSpaceOnUse" id="paint0_linear_0_1180" x1="6.10882e-08" x2="30.2486" y1="0" y2="116.12">
<stop stop-color="#1628D4"/>
<stop offset="1" stop-color="#FF254F"/>
</linearGradient>
</defs>
</svg>