<?xml version="1.0" encoding="utf-8"?>
<svg xmlns="http://www.w3.org/2000/svg" fill="none" height="100%" overflow="visible" preserveAspectRatio="none" style="display: block;" viewBox="0 0 149.866 149.864" width="100%">
<g id="Left Logo">
<path d="M91.4043 0C106.663 0 121.562 6.01089 132.71 17.1592C143.961 28.4103 149.972 43.566 149.818 58.9785V58.4141H149.813L149.815 59.7725C149.767 60.1223 149.767 60.4239 149.767 60.7256C149.809 60.4724 149.814 60.2191 149.815 59.9375L149.864 91.499V90.9346C149.967 106.398 144.008 121.503 132.757 132.754C121.506 144.005 106.35 150.015 90.9375 149.861H58.9307C43.4669 149.964 28.3625 144.005 17.1113 132.754C5.86026 121.503 -0.15108 106.347 0.00292969 90.9346V58.9277C-0.146058 43.4638 5.81388 28.3596 17.0137 17.1084C28.1621 6.01135 43.0091 0 58.2676 0H91.4043ZM87.2949 149.759C87.603 149.759 87.9624 149.811 88.2705 149.811C87.9624 149.811 87.6543 149.759 87.2949 149.759ZM81.9004 149.091C82.1572 149.142 82.4657 149.194 82.8252 149.245C82.517 149.194 82.2086 149.142 81.9004 149.091ZM74.2969 147.807C73.629 147.858 73.0638 147.961 72.4473 148.115C73.0637 148.012 73.6804 147.961 74.2969 147.807ZM111.44 115.234C111.851 114.31 110.978 113.436 110.054 113.796C99.5732 117.289 88.1168 117.803 77.3281 115.08C75.7355 114.669 74.0907 114.669 72.498 115.08C61.7093 117.803 50.2529 117.341 39.7725 113.796C38.8992 113.488 38.0258 114.361 38.4365 115.234C41.3135 121.656 45.3211 127.513 50.4072 132.6C56.3666 138.61 63.6617 143.234 71.5732 146.111C73.7823 146.933 76.146 146.933 78.3037 146.111C86.2155 143.234 93.4598 138.611 99.4707 132.6C104.557 127.513 108.563 121.708 111.44 115.234ZM78.3037 36.8877C76.0946 36.0657 73.731 36.0657 71.5732 36.8877C63.6617 39.7647 56.418 44.44 50.4072 50.3994C44.3964 56.3589 39.7725 63.6538 36.8955 71.5654C36.0735 73.7746 36.0735 76.1381 36.8955 78.2959C39.7211 86.259 44.3963 93.5034 50.4072 99.4629C56.3666 105.474 63.6618 110.097 71.5732 112.974C73.7824 113.796 76.146 113.796 78.3037 112.974C86.2154 110.097 93.4598 105.474 99.4707 99.4629C105.482 93.5034 110.105 86.2077 112.982 78.2959C113.702 76.1381 113.702 73.7746 112.982 71.5654C110.105 63.6538 105.481 56.4102 99.4707 50.3994C93.5112 44.3885 86.2155 39.7647 78.3037 36.8877ZM115.191 38.4805C114.369 38.0695 113.445 38.8908 113.753 39.8154C117.246 50.296 117.709 61.7532 115.037 72.542C114.626 74.1346 114.626 75.7785 115.037 77.3711C117.76 88.1597 117.246 99.6162 113.753 110.097C113.445 110.97 114.318 111.844 115.191 111.433C121.664 108.556 127.47 104.549 132.556 99.4629C138.567 93.5034 143.19 86.2076 146.067 78.2959C146.838 76.1381 146.838 73.7749 146.067 71.6172C143.19 63.7054 138.567 56.4611 132.556 50.4502C127.47 45.3643 121.664 41.3574 115.191 38.4805ZM36.0732 39.7129C36.3814 38.8395 35.5081 37.966 34.6348 38.377C28.1616 41.2539 22.3566 45.2616 17.2705 50.3477C11.2596 56.3072 6.6358 63.6029 3.75879 71.5146C2.93687 73.7237 2.93687 76.0865 3.75879 78.2441C6.6358 86.1559 11.2596 93.4002 17.2705 99.4111C22.3566 104.497 28.1616 108.505 34.6348 111.382C35.4567 111.793 36.3814 110.971 36.0732 110.046C32.5797 99.5654 32.1176 88.1081 34.7891 77.3193C35.2 75.7268 35.2 74.0827 34.7891 72.4902C32.169 61.7015 32.5797 50.3475 36.0732 39.7129ZM0.0546875 89.1875C0.00333927 89.4956 0.0029297 89.8037 0.00292969 90.1631C0.0542376 89.8037 0.0546875 89.4956 0.0546875 89.1875ZM149.767 89.1357C149.767 89.4954 149.767 89.8041 149.818 90.1123C149.818 89.8041 149.767 89.4954 149.767 89.1357ZM0.102539 87.5703C0.0880805 87.8038 0.0595703 88.0449 0.0595703 88.3145C0.0595703 88.0833 0.0880885 87.8228 0.102539 87.5771V87.5703ZM0.264648 85.5908C0.213286 85.8476 0.213445 86.2074 0.162109 86.5156C0.213473 86.1561 0.264648 85.8476 0.264648 85.5908ZM149.562 85.54C149.562 85.8482 149.613 86.1567 149.664 86.4648C149.613 86.2081 149.613 85.8482 149.562 85.54ZM1.13867 80.0938C1.03594 80.3506 0.983985 80.7103 0.932617 81.0186C0.984 80.7103 1.0873 80.3506 1.13867 80.0938ZM1.75488 77.4229C1.60079 77.9879 1.44648 78.6043 1.34375 79.2207C1.44648 78.6043 1.60079 78.0392 1.75488 77.4229ZM147.866 75.5732C147.918 76.1896 147.968 76.8065 148.174 77.4229C148.328 78.0392 148.431 78.6043 148.585 79.2207C148.482 78.6043 148.328 78.0392 148.174 77.4229C148.02 76.8065 147.918 76.1896 147.866 75.5732ZM1.24121 70.6924C1.34395 71.3088 1.49824 71.8738 1.65234 72.4902C1.80646 73.1067 1.90858 73.7234 1.95996 74.3398C1.90859 73.7234 1.85783 73.1067 1.65234 72.4902C1.49824 71.8738 1.39531 71.3088 1.24121 70.6924ZM148.482 70.6924C148.38 71.3088 148.225 71.8738 148.071 72.4902C148.225 71.9252 148.38 71.3088 148.482 70.6924ZM148.894 68.8945C148.842 69.2027 148.739 69.5626 148.688 69.8193C148.79 69.5626 148.842 69.2027 148.894 68.8945ZM0.162109 63.4482C0.213477 63.7051 0.213297 64.0648 0.264648 64.373C0.264637 64.0648 0.213479 63.7565 0.162109 63.4482ZM149.664 63.3975C149.613 63.7567 149.562 64.0646 149.562 64.3213C149.613 64.0646 149.613 63.7054 149.664 63.3975ZM149.767 61.5986C149.767 61.9069 149.716 62.2669 149.716 62.5752C149.716 62.2669 149.767 61.9583 149.767 61.5986ZM0.0078125 59.8008C0.00781499 60.109 0.0595703 60.4177 0.0595703 60.7773C0.0595703 60.4177 0.0591877 60.109 0.0078125 59.8008ZM149.815 59.9375V59.7725C149.816 59.7648 149.817 59.7567 149.818 59.749C149.818 59.8133 149.816 59.8762 149.815 59.9375ZM78.2529 3.80176C76.0438 2.97977 73.6802 2.97979 71.5225 3.80176C63.6107 6.67877 56.3664 11.3026 50.3555 17.3135C45.2694 22.3996 41.2627 28.2055 38.3857 34.6787C37.975 35.6033 38.8478 36.4767 39.7725 36.1172C50.2528 32.6237 61.7094 32.1607 72.498 34.832C74.0907 35.243 75.7355 35.243 77.3281 34.832C88.1168 32.1093 99.5733 32.6237 110.054 36.1172C110.927 36.4253 111.8 35.5519 111.39 34.6787C108.513 28.2054 104.505 22.3996 99.4189 17.3135C93.4595 11.3027 86.1645 6.67877 78.2529 3.80176Z" fill="var(--fill-0, black)" id="Left Logo_2"/>
</g>
</svg>