<?xml version="1.0" encoding="utf-8"?>
<svg xmlns="http://www.w3.org/2000/svg" fill="none" height="100%" overflow="visible" preserveAspectRatio="none" style="display: block;" viewBox="0 0 15.8305 15.8304" width="100%">
<path d="M9.65558 0C11.2671 0.000109565 12.8404 0.635141 14.0179 1.8125C15.1917 2.98635 15.8248 4.56262 15.8245 6.16992L15.8304 9.60547C15.8412 11.2389 15.2112 12.834 14.0228 14.0225C12.8343 15.2109 11.2338 15.8464 9.60577 15.8301H6.22491C4.59145 15.8409 2.99639 15.2109 1.80792 14.0225C0.619449 12.834 -0.0159751 11.2335 0.000305216 9.60547V6.22461C-0.0154316 4.59124 0.614274 2.99607 1.79718 1.80762C2.97474 0.635488 4.54293 6.86375e-05 6.1546 0H9.65558ZM11.6253 12.0205C10.5183 12.3895 9.30788 12.4438 8.16827 12.1562C8.00016 12.1129 7.82663 12.1129 7.65851 12.1562C6.51897 12.4438 5.30847 12.3949 4.20148 12.0205C4.10938 11.988 4.01701 12.0798 4.05988 12.1719C4.36378 12.8502 4.78727 13.4696 5.32452 14.0068C5.95402 14.6417 6.72516 15.1297 7.56085 15.4336C7.79412 15.5203 8.04396 15.5204 8.27179 15.4336C9.10727 15.1297 9.87235 14.6416 10.5071 14.0068C11.0444 13.4696 11.4679 12.8557 11.7718 12.1719C11.8147 12.0744 11.7228 11.9827 11.6253 12.0205ZM8.27179 3.89648C8.03857 3.8097 7.78868 3.8098 7.56085 3.89648C6.72522 4.20035 5.95942 4.69383 5.32452 5.32324C4.68962 5.95272 4.20167 6.72389 3.89777 7.55957C3.81094 7.79292 3.81094 8.04258 3.89777 8.27051C4.19621 9.11148 4.68975 9.87644 5.32452 10.5059C5.95403 11.1408 6.72512 11.6297 7.56085 11.9336C7.79409 12.0203 8.04399 12.0204 8.27179 11.9336C9.10736 11.6297 9.87231 11.1407 10.5071 10.5059C11.142 9.87639 11.631 9.10614 11.9349 8.27051C12.0108 8.04266 12.0108 7.79285 11.9349 7.55957C11.631 6.72384 11.1421 5.95818 10.5071 5.32324C9.87778 4.68853 9.10725 4.20036 8.27179 3.89648ZM12.1673 4.06445C12.0806 4.0216 11.9834 4.10855 12.0159 4.20605C12.3849 5.31305 12.4338 6.52355 12.1517 7.66309C12.1083 7.83121 12.1083 8.00474 12.1517 8.17285C12.4393 9.31245 12.3849 10.5228 12.0159 11.6299C11.9836 11.722 12.0752 11.8136 12.1673 11.7705C12.8511 11.4666 13.465 11.0431 14.0023 10.5059C14.637 9.87644 15.1252 9.10604 15.429 8.27051C15.5104 8.04268 15.5103 7.79327 15.429 7.56543C15.1251 6.72974 14.6372 5.96402 14.0023 5.3291C13.465 4.79185 12.8511 4.36835 12.1673 4.06445ZM3.65851 4.05371C2.97477 4.3576 2.36176 4.78115 1.82452 5.31836C1.18966 5.94779 0.700699 6.7181 0.39679 7.55371C0.310014 7.78692 0.31012 8.03684 0.39679 8.26465C0.700691 9.10038 1.18959 9.86604 1.82452 10.501C2.36174 11.0381 2.9748 11.4618 3.65851 11.7656C3.74531 11.8089 3.8434 11.7217 3.81085 11.624C3.44185 10.517 3.39292 9.30659 3.67511 8.16699C3.71841 7.99891 3.71847 7.8253 3.67511 7.65723C3.39836 6.51767 3.4419 5.3186 3.81085 4.19531C3.84341 4.10307 3.75075 4.01033 3.65851 4.05371ZM15.6194 7.98242C15.6247 8.04582 15.6304 8.10945 15.6507 8.17285C15.6351 8.1095 15.6247 8.04577 15.6194 7.98242ZM0.174133 7.65723C0.19041 7.72233 0.201908 7.78743 0.207336 7.85254C0.201911 7.78743 0.195836 7.72233 0.174133 7.65723ZM8.26593 0.401367C8.03262 0.314564 7.78288 0.314574 7.55499 0.401367C6.71926 0.705269 5.9536 1.19416 5.31866 1.8291C4.78162 2.36624 4.35882 2.97951 4.05499 3.66309C4.01158 3.76077 4.10379 3.85342 4.20148 3.81543C5.30851 3.44645 6.51892 3.3975 7.65851 3.67969C7.82659 3.72298 8.0002 3.72306 8.16827 3.67969C9.30791 3.39207 10.5182 3.44641 11.6253 3.81543C11.7175 3.84768 11.8093 3.75524 11.7659 3.66309C11.462 2.97935 11.0385 2.36633 10.5013 1.8291C9.87179 1.19421 9.10162 0.705253 8.26593 0.401367Z" fill="var(--fill-0, black)" id="Left Logo"/>
</svg>