<?xml version="1.0" encoding="utf-8"?>
<svg xmlns="http://www.w3.org/2000/svg" fill="none" height="100%" overflow="visible" preserveAspectRatio="none" style="display: block;" viewBox="0 0 15.8305 15.8304" width="100%">
<path d="M9.65558 0C11.2673 2.94244e-05 12.8413 0.634908 14.0189 1.8125C15.2073 3.00096 15.8418 4.60246 15.8255 6.23047L15.8304 9.60547C15.8412 11.2388 15.212 12.834 14.0237 14.0225C12.8353 15.2109 11.2338 15.8464 9.60577 15.8301H6.22491C4.59153 15.8409 2.99633 15.2109 1.80792 14.0225C0.619533 12.834 -0.0159737 11.2335 0.000305126 9.60547V6.22461C-0.015431 4.59131 0.614372 2.99605 1.79718 1.80762C2.9748 0.635424 4.54381 0 6.15558 0H9.65558ZM11.6253 12.0205C10.5183 12.3895 9.30787 12.4439 8.16827 12.1562C8.00012 12.1129 7.82666 12.1129 7.65851 12.1562C6.51888 12.4439 5.30855 12.395 4.20148 12.0205C4.1093 11.988 4.01769 12.0797 4.06085 12.1719C4.36474 12.8502 4.7873 13.4696 5.32452 14.0068C5.95403 14.6418 6.72512 15.1297 7.56085 15.4336C7.7942 15.5204 8.04387 15.5204 8.27179 15.4336C9.10731 15.1297 9.87232 14.6416 10.5071 14.0068C11.0444 13.4696 11.4679 12.8557 11.7718 12.1719C11.8148 12.0743 11.7229 11.9826 11.6253 12.0205ZM8.27179 3.89648C8.03847 3.80967 7.78875 3.8097 7.56085 3.89648C6.72515 4.20038 5.95945 4.69376 5.32452 5.32324C4.6896 5.95274 4.20167 6.72386 3.89777 7.55957C3.81094 7.79292 3.81094 8.04258 3.89777 8.27051C4.19618 9.11145 4.6898 9.87644 5.32452 10.5059C5.95403 11.1408 6.72512 11.6297 7.56085 11.9336C7.79417 12.0204 8.0439 12.0204 8.27179 11.9336C9.10747 11.6297 9.87224 11.1408 10.5071 10.5059C11.142 9.87636 11.631 9.10621 11.9349 8.27051C12.0108 8.0426 12.0108 7.7929 11.9349 7.55957C11.631 6.72384 11.1421 5.95818 10.5071 5.32324C9.87774 4.68854 9.10728 4.20033 8.27179 3.89648ZM12.1683 4.06445C12.0814 4.02104 11.9834 4.10837 12.0159 4.20605C12.3849 5.31308 12.4339 6.52352 12.1517 7.66309C12.1084 7.83119 12.1083 8.00476 12.1517 8.17285C12.4393 9.31248 12.385 10.5228 12.0159 11.6299C11.9836 11.7221 12.0761 11.8139 12.1683 11.7705C12.852 11.4666 13.4651 11.043 14.0023 10.5059C14.6371 9.87638 15.1261 9.10616 15.43 8.27051C15.5113 8.04278 15.5112 7.79319 15.43 7.56543C15.1261 6.7297 14.6372 5.96404 14.0023 5.3291C13.465 4.79189 12.852 4.36834 12.1683 4.06445ZM3.65851 4.05371C2.97482 4.35761 2.36172 4.78116 1.82452 5.31836C1.18975 5.94773 0.701672 6.71821 0.397766 7.55371C0.310962 7.787 0.311011 8.03677 0.397766 8.26465C0.701668 9.10038 1.18959 9.86604 1.82452 10.501C2.36173 11.0382 2.9748 11.4617 3.65851 11.7656C3.74534 11.809 3.84341 11.7217 3.81085 11.624C3.44188 10.517 3.39293 9.30656 3.67511 8.16699C3.71844 7.99887 3.71849 7.82534 3.67511 7.65723C3.39837 6.51771 3.44193 5.31857 3.81085 4.19531C3.84341 4.10306 3.75076 4.0103 3.65851 4.05371ZM15.6194 7.98242C15.6246 8.04391 15.6309 8.1055 15.6497 8.16699C15.635 8.10558 15.6246 8.04383 15.6194 7.98242ZM0.17511 7.65723C0.191377 7.72231 0.201909 7.78746 0.207336 7.85254C0.201914 7.78747 0.196788 7.7223 0.17511 7.65723ZM8.26593 0.401367C8.03267 0.314653 7.78282 0.314576 7.55499 0.401367C6.71934 0.705274 5.95453 1.19421 5.31964 1.8291C4.7824 2.36635 4.35889 2.97933 4.05499 3.66309C4.0116 3.76072 4.10385 3.85326 4.20148 3.81543C5.30855 3.44641 6.51888 3.39749 7.65851 3.67969C7.82658 3.72303 8.0002 3.72301 8.16827 3.67969C9.30791 3.39207 10.5182 3.44641 11.6253 3.81543C11.7175 3.84794 11.8102 3.75528 11.7669 3.66309C11.463 2.97941 11.0394 2.3663 10.5023 1.8291C9.87275 1.19416 9.10166 0.705269 8.26593 0.401367Z" fill="var(--fill-0, black)" id="Left Logo"/>
</svg>