<?xml version="1.0" encoding="utf-8"?>
<svg xmlns="http://www.w3.org/2000/svg" fill="none" height="100%" overflow="visible" preserveAspectRatio="none" style="display: block;" viewBox="0 0 15.8576 15.8576" width="100%">
<g id="Right logo">
<path d="M7.92773 0C9.18176 0.000223344 10.1982 1.00792 10.1982 2.25098C10.1982 2.33042 10.1936 2.40901 10.1855 2.48633C10.2342 2.42658 10.2861 2.36815 10.3418 2.3125C11.2209 1.43369 12.6463 1.43369 13.5254 2.3125C14.4044 3.19155 14.4043 4.61695 13.5254 5.49609C13.4557 5.56577 13.3807 5.62789 13.3047 5.68652C13.4035 5.67328 13.504 5.66504 13.6064 5.66504C14.8497 5.66504 15.8574 6.67274 15.8574 7.91602C15.8573 9.15921 14.8497 10.167 13.6064 10.167C13.4962 10.167 13.3882 10.1559 13.2822 10.1406C13.3705 10.2061 13.457 10.2764 13.5371 10.3564C14.4162 11.2356 14.4162 12.6609 13.5371 13.54C12.658 14.4192 11.2326 14.4192 10.3535 13.54C10.289 13.4755 10.2308 13.4069 10.1758 13.3369C10.1863 13.4253 10.1934 13.5152 10.1934 13.6064C10.1933 14.8497 9.18563 15.8574 7.94238 15.8574C6.69921 15.8573 5.69145 14.8496 5.69141 13.6064C5.69141 13.5132 5.69797 13.4213 5.70898 13.3311C5.65107 13.4061 5.59023 13.4801 5.52148 13.5488C4.64241 14.4279 3.21114 14.4219 2.32422 13.5352C1.43739 12.6483 1.43069 11.217 2.30957 10.3379C2.36218 10.2853 2.41632 10.2347 2.47266 10.1885C2.39978 10.1957 2.32572 10.2002 2.25098 10.2002C1.00781 10.2001 0 9.18291 0 7.92871C0.000120166 6.67461 1.00788 5.65833 2.25098 5.6582C2.31675 5.6582 2.38195 5.66239 2.44629 5.66797C2.39584 5.62572 2.34623 5.58158 2.29883 5.53418C1.41972 4.65507 1.42564 3.22285 2.3125 2.33594C3.19941 1.44903 4.63162 1.44314 5.51074 2.32227C5.56798 2.37951 5.62117 2.43935 5.6709 2.50098C5.66175 2.41892 5.65625 2.33545 5.65625 2.25098C5.65634 1.00778 6.67352 0 7.92773 0ZM6.14844 3.64746C6.22536 4.3124 6.0089 5.00672 5.49609 5.51953C4.99936 6.01623 4.33222 6.23626 3.68652 6.17969C4.18472 6.59621 4.50189 7.22495 4.50195 7.92871C4.50195 8.64199 4.17583 9.27798 3.66602 9.69434C4.32142 9.62772 5.00303 9.84678 5.50781 10.3516C6.02418 10.868 6.23896 11.5691 6.15723 12.2383C6.56868 11.7022 7.21436 11.3555 7.94238 11.3555C8.66086 11.3555 9.29975 11.6927 9.71191 12.2168C9.63276 11.5548 9.84547 10.8645 10.3535 10.3564C10.8753 9.83464 11.5893 9.62405 12.2676 9.72168C11.7153 9.31149 11.3555 8.65684 11.3555 7.91602C11.3555 7.1893 11.7009 6.54441 12.2354 6.13281C11.5632 6.22334 10.8584 6.01269 10.3418 5.49609C9.84008 4.99422 9.62513 4.31473 9.69629 3.66016C9.2801 4.17288 8.64328 4.50183 7.92773 4.50195C7.2062 4.50195 6.56444 4.16747 6.14844 3.64746Z" fill="var(--fill-0, black)" id="Right logo_2"/>
</g>
</svg>