<?xml version="1.0" encoding="utf-8"?>
<svg xmlns="http://www.w3.org/2000/svg" fill="none" height="100%" overflow="visible" preserveAspectRatio="none" style="display: block;" viewBox="0 0 140.5 544.66" width="100%">
<path d="M90.187 8C90.187 12.4183 93.7688 16 98.187 16C102.605 16 106.187 12.4183 106.187 8C106.187 3.58172 102.605 0 98.187 0C93.7688 0 90.187 3.58172 90.187 8ZM0 536L15 544.66V527.34L0 536ZM13.8833 536V537.5H25.7833V536V534.5H13.8833V536ZM33.7167 536V537.5H45.6167V536V534.5H33.7167V536ZM53.55 536V537.5H65.45V536V534.5H53.55V536ZM73.3833 536V537.5H85.2833V536V534.5H73.3833V536ZM93.2167 536V537.5H105.117V536V534.5H93.2167V536ZM113.05 536V537.5H119V536V534.5H113.05V536ZM119 536V537.5C120.727 537.5 122.408 537.296 124.02 536.91L123.671 535.452L123.322 533.993C121.937 534.324 120.49 534.5 119 534.5V536ZM129.451 533.055L130.236 534.334C133.124 532.56 135.56 530.124 137.334 527.236L136.055 526.451L134.777 525.666C133.251 528.152 131.152 530.25 128.666 531.777L129.451 533.055ZM138.452 520.671L139.91 521.02C140.296 519.408 140.5 517.727 140.5 516H139H137.5C137.5 517.49 137.324 518.937 136.993 520.322L138.452 520.671ZM139 516H140.5V509.9H139H137.5V516H139ZM139 501.767H140.5V489.567H139H137.5V501.767H139ZM139 481.433H140.5V469.233H139H137.5V481.433H139ZM139 461.1H140.5V448.9H139H137.5V461.1H139ZM139 440.767H140.5V428.567H139H137.5V440.767H139ZM139 420.433H140.5V408.233H139H137.5V420.433H139ZM139 400.1H140.5V387.9H139H137.5V400.1H139ZM139 379.767H140.5V367.567H139H137.5V379.767H139ZM139 359.433H140.5V347.233H139H137.5V359.433H139ZM139 339.1H140.5V326.9H139H137.5V339.1H139ZM139 318.767H140.5V306.567H139H137.5V318.767H139ZM139 298.433H140.5V286.233H139H137.5V298.433H139ZM139 278.1H140.5V265.9H139H137.5V278.1H139ZM139 257.767H140.5V245.567H139H137.5V257.767H139ZM139 237.433H140.5V225.233H139H137.5V237.433H139ZM139 217.1H140.5V204.9H139H137.5V217.1H139ZM139 196.767H140.5V184.567H139H137.5V196.767H139ZM139 176.433H140.5V164.233H139H137.5V176.433H139ZM139 156.1H140.5V143.9H139H137.5V156.1H139ZM139 135.767H140.5V123.567H139H137.5V135.767H139ZM139 115.433H140.5V103.233H139H137.5V115.433H139ZM139 95.0999H140.5V82.8999H139H137.5V95.0999H139ZM139 74.7666H140.5V62.5666H139H137.5V74.7666H139ZM139 54.4333H140.5V42.2332H139H137.5V54.4333H139ZM139 34.0999H140.5V28H139H137.5V34.0999H139ZM139 28H140.5C140.5 26.2732 140.296 24.592 139.91 22.98L138.452 23.3291L136.993 23.6781C137.324 25.0631 137.5 26.51 137.5 28H139ZM136.055 17.5488L137.334 16.7639C135.56 13.876 133.124 11.4398 130.236 9.66639L129.451 10.9446L128.666 12.2228C131.152 13.7495 133.251 15.8477 134.777 18.3338L136.055 17.5488ZM123.671 8.54838L124.02 7.08955C122.408 6.70388 120.727 6.5 119 6.5V8V9.5C120.49 9.5 121.937 9.67583 123.322 10.0072L123.671 8.54838ZM119 8V6.5H112.756V8V9.5H119V8ZM104.431 8V6.5H98.187V8V9.5H104.431V8Z" fill="var(--stroke-0, white)" id="Vector 1292"/>
</svg>