<?xml version="1.0" encoding="utf-8"?>
<svg xmlns="http://www.w3.org/2000/svg" fill="none" height="100%" overflow="visible" preserveAspectRatio="none" style="display: block;" viewBox="0 0 15.8295 15.8304" width="100%">
<path d="M9.6546 0C11.2664 0 12.8403 0.634883 14.0179 1.8125C15.2064 3.00097 15.8408 4.60242 15.8245 6.23047L15.8294 9.60547C15.8403 11.2388 15.2111 12.834 14.0228 14.0225C12.8344 15.2108 11.2337 15.8462 9.60577 15.8301H6.22394C4.59062 15.8408 2.99531 15.2108 1.80695 14.0225C0.618615 12.834 -0.0159739 11.2334 0.000305575 9.60547V6.22461C-0.0154302 4.59135 0.613454 2.99604 1.7962 1.80762C2.97382 0.635424 4.54284 0 6.1546 0H9.6546ZM11.6243 12.0205C10.5173 12.3894 9.30683 12.4438 8.1673 12.1562C7.99918 12.1129 7.82564 12.1129 7.65753 12.1562C6.51793 12.4438 5.30754 12.3949 4.2005 12.0205C4.1084 11.9881 4.01682 12.0798 4.05988 12.1719C4.36378 12.8502 4.78727 13.4696 5.32452 14.0068C5.95394 14.6416 6.72434 15.1297 7.55988 15.4336C7.79323 15.5204 8.04289 15.5204 8.27081 15.4336C9.10652 15.1297 9.87222 14.6418 10.5071 14.0068C11.0443 13.4696 11.4669 12.8556 11.7708 12.1719C11.8139 12.0743 11.7219 11.9826 11.6243 12.0205ZM8.27081 3.89648C8.03746 3.80966 7.7878 3.80966 7.55988 3.89648C6.72437 4.20031 5.95936 4.69396 5.32452 5.32324C4.68959 5.95275 4.20069 6.72384 3.89679 7.55957C3.80997 7.79292 3.80996 8.04259 3.89679 8.27051C4.19527 9.11165 4.68959 9.87635 5.32452 10.5059C5.95403 11.1408 6.72416 11.6297 7.55988 11.9336C7.79322 12.0204 8.04289 12.0204 8.27081 11.9336C9.10654 11.6297 9.8722 11.1408 10.5071 10.5059C11.1418 9.87644 11.6301 9.10602 11.9339 8.27051C12.0099 8.04258 12.0099 7.79292 11.9339 7.55957C11.63 6.72384 11.1421 5.95818 10.5071 5.32324C9.87763 4.68831 9.10654 4.20039 8.27081 3.89648ZM12.1673 4.06445C12.0805 4.02114 11.9824 4.1084 12.015 4.20605C12.3839 5.31309 12.4329 6.5235 12.1507 7.66309C12.1074 7.83117 12.1073 8.00478 12.1507 8.17285C12.4383 9.31248 12.384 10.5228 12.015 11.6299C11.9827 11.722 12.0751 11.8139 12.1673 11.7705C12.851 11.4666 13.4641 11.0431 14.0013 10.5059C14.6362 9.87637 15.1251 9.1062 15.429 8.27051C15.5104 8.04274 15.5103 7.79322 15.429 7.56543C15.1251 6.7297 14.6362 5.96404 14.0013 5.3291C13.4641 4.79192 12.851 4.36833 12.1673 4.06445ZM3.65851 4.05371C2.97473 4.35761 2.3608 4.7811 1.82355 5.31836C1.1888 5.94773 0.700679 6.71822 0.39679 7.55371C0.309993 7.78698 0.310058 8.03679 0.39679 8.26465C0.700681 9.10035 1.18864 9.86605 1.82355 10.501C2.3608 11.0382 2.97473 11.4617 3.65851 11.7656C3.74521 11.8085 3.84238 11.7215 3.80988 11.624C3.44092 10.517 3.39196 9.30654 3.67413 8.16699C3.71747 7.99885 3.71752 7.82536 3.67413 7.65723C3.39741 6.51774 3.44097 5.31854 3.80988 4.19531C3.84239 4.1032 3.75062 4.01079 3.65851 4.05371ZM15.6185 7.98242C15.6238 8.04587 15.6304 8.10941 15.6507 8.17285C15.6351 8.10946 15.6238 8.04581 15.6185 7.98242ZM0.174134 7.65723C0.190405 7.72232 0.200931 7.78745 0.20636 7.85254C0.200936 7.78745 0.195826 7.72231 0.174134 7.65723ZM8.26495 0.401367C8.03174 0.314712 7.78179 0.314596 7.55402 0.401367C6.71842 0.705278 5.95351 1.19425 5.31866 1.8291C4.78147 2.36633 4.3579 2.97936 4.05402 3.66309C4.01071 3.76064 4.10295 3.85309 4.2005 3.81543C5.30757 3.44641 6.5179 3.39749 7.65753 3.67969C7.8256 3.72306 7.99922 3.72298 8.1673 3.67969C9.30688 3.39208 10.5173 3.44645 11.6243 3.81543C11.7166 3.84798 11.8093 3.75532 11.7659 3.66309C11.4621 2.97937 11.0385 2.36632 10.5013 1.8291C9.87177 1.19416 9.10068 0.705269 8.26495 0.401367Z" fill="var(--fill-0, black)" id="Left Logo"/>
</svg>