<?xml version="1.0" encoding="utf-8"?>
<svg xmlns="http://www.w3.org/2000/svg" fill="none" height="100%" overflow="visible" preserveAspectRatio="none" style="display: block;" viewBox="0 0 184.266 48" width="100%">
<path d="M27.3623 0.266952C29.1989 7.46439 29.9743 14.323 29.3927 20.8633C35.7901 21.1405 42.0752 22.3932 47.9828 24.7033C48.4827 23.2556 48.1767 21.5615 47.0441 20.4116L27.3623 0.266952ZM27.0256 20.812C26.8215 13.2963 25.1176 6.27337 21.118 0L1.1709 20.4116C-0.288146 21.9003 -0.379974 24.2721 0.875009 25.8841C9.27217 22.5164 18.2203 20.7606 27.0256 20.812ZM47.6257 25.4631C41.7793 23.7587 35.5146 22.9887 29.0764 23.4404C28.5969 26.7157 27.7602 29.9089 26.5256 33.0096C30.7905 32.8145 35.2289 33.0199 39.7693 33.6565L47.0237 26.2332C47.2686 25.997 47.4624 25.7403 47.6257 25.4631ZM39.6469 33.8002C28.8009 33.7899 21.0976 36.6854 15.5063 40.9052L21.2608 46.7987C22.8219 48.4004 25.3829 48.4004 26.944 46.7987L39.6469 33.8002ZM10.568 35.8434C15.394 34.2622 20.6589 33.3074 26.2093 33.0302C26.6787 29.837 26.9746 26.6952 27.0358 23.6252C19.9752 24.4056 12.731 26.6747 5.66027 30.8124L10.568 35.8434ZM183.48 30.2169C182.021 31.0075 178.215 31.7365 178.532 29.1696L179.134 24.2413H183.99L184.266 21.4588H179.481L179.776 19.0768H175.114L174.818 21.4588H171.42L171.145 24.2413H174.461L173.746 30.0218C173.104 35.1144 180.174 34.4984 182.939 32.64L183.48 30.2169ZM159.207 25.9867C159.289 26.5514 167.747 26.0381 166.308 22.6601C164.288 19.5286 159.523 22.6088 159.207 25.9867ZM165.472 18.9022C173.991 20.0317 169.114 30.1964 159.197 28.5844C159.329 32.8145 167.155 30.9664 169.022 30.3298L168.563 32.8556C163.227 34.9707 153.973 34.7653 154.412 26.5925C154.707 21.2124 160.431 18.2349 165.472 18.9022ZM98.2944 29.2723C98.1923 30.6892 101.243 30.8945 103.61 30.145C105.641 29.4982 107.467 26.1305 105.732 23.9025C104.355 22.1262 100.1 22.1467 98.7127 24.2721L98.2944 29.2723ZM108.64 20.9865C114.119 26.5309 107.763 36.3876 97.9066 33.2458L97.223 40.2379H92.6826L94.2947 23.2762C95.6109 19.3643 104.998 17.3005 108.64 20.9865ZM65.6036 24.1386C63.1242 22.6498 62.1141 21.4999 62.0733 20.2781C62.0529 19.5696 62.6957 18.9022 63.5425 18.625C65.9199 17.8755 68.1442 18.738 69.7869 19.3232L71.552 16.705C68.9196 15.5551 63.4915 13.9431 60.0021 16.0068C55.3494 18.7585 57.6758 23.4712 60.298 25.0935C61.7876 26.0175 64.5833 27.8143 64.1445 29.3339C63.2773 32.1985 58.1961 31.336 56.9819 30.9048C56.0739 30.5763 55.4107 30.299 54.7985 29.8165L54.6556 33.5743C55.5025 33.8208 56.4514 33.985 57.4921 34.1801C66.7361 35.864 74.3885 29.416 65.6036 24.1386ZM91.193 33.9337L93.0193 15.2984H88.3157L86.4894 33.9337H91.193ZM116.374 33.9337L118.201 15.2984H113.497L111.671 33.9337H116.374ZM133.362 33.9337L134.444 23.1529C135.117 16.4997 117.762 18.1117 118.782 28.9335C119.282 34.2314 124.588 34.1288 127.281 33.4922L127.557 30.8535C119.394 31.5517 123.261 20.8736 130.006 23.2248L128.802 33.944H133.362V33.9337ZM151.973 33.9337L152.973 23.2762C153.493 17.7318 144.198 18.738 141.26 21.8182L141.525 19.1384H136.852L135.383 33.944H140.076L140.831 26.0689C141.239 21.6539 148.514 21.2329 148.157 24.8573L147.259 33.9542H151.973V33.9337ZM81.3368 28.7384L84.6732 30.1656C83.408 32.5065 81.0001 34.1185 78.1942 34.1185C74.0926 34.1185 70.7664 30.7097 70.7664 26.5104C70.7664 22.311 74.0926 18.9125 78.1942 18.9125C82.2959 18.9125 85.6221 22.3213 85.6221 26.5104C85.6221 27.8451 85.2548 29.067 84.6732 30.1656L81.6225 28.2456C80.9695 27.6193 81.2858 26.9313 82.102 26.8184L85.5711 26.5925L82.0306 26.264C81.2041 26.1613 81.0613 25.3502 81.449 25.0319L84.6528 22.886L81.1123 24.4261C80.5613 24.539 80.1328 24.1797 80.2757 23.656L82.0102 20.0522L79.7043 23.2248C79.2553 23.6458 78.6432 23.461 78.5717 22.7936L78.2146 18.9639L77.8575 22.7936C77.7861 23.4507 77.1739 23.6458 76.725 23.2248L74.4191 20.0522L76.1536 23.656C76.2862 24.1797 75.8577 24.539 75.3169 24.4261L71.7765 22.886L74.9802 25.0319C75.368 25.3502 75.2251 26.1613 74.3987 26.264L70.8582 26.5925L74.3374 26.8184C75.1435 26.9313 75.4598 27.6193 74.8068 28.2456L71.7561 30.1758L75.0925 28.7384C76.0108 28.4612 76.3475 29.1902 76.0006 29.8473L74.5211 33.0404L76.6025 30.145C76.9596 29.5598 77.7759 29.5393 77.8881 30.3298L78.2248 34.0672L78.5513 30.3298C78.6534 29.5393 79.4696 29.5598 79.8369 30.145L81.9184 33.0404L80.4389 29.8473C80.0818 29.1902 80.4185 28.4612 81.3368 28.7384Z" fill="var(--fill-0, white)" id="Vector"/>
</svg>