<?xml version="1.0" encoding="utf-8"?>
<svg xmlns="http://www.w3.org/2000/svg" fill="none" height="100%" overflow="visible" preserveAspectRatio="none" style="display: block;" viewBox="0 0 157.5 608.66" width="100%">
<path d="M102.196 8C102.196 12.4183 105.777 16 110.196 16C114.614 16 118.196 12.4183 118.196 8C118.196 3.58172 114.614 0 110.196 0C105.777 0 102.196 3.58172 102.196 8ZM0 600L15 608.66V591.34L0 600ZM13.6 600V601.5H25.2571V600V598.5H13.6V600ZM33.0286 600V601.5H44.6857V600V598.5H33.0286V600ZM52.4571 600V601.5H64.1143V600V598.5H52.4571V600ZM71.8857 600V601.5H83.5429V600V598.5H71.8857V600ZM91.3143 600V601.5H102.971V600V598.5H91.3143V600ZM110.743 600V601.5H122.4V600V598.5H110.743V600ZM130.171 600V601.5H136V600V598.5H130.171V600ZM136 600V601.5C137.727 601.5 139.408 601.296 141.02 600.91L140.671 599.452L140.322 597.993C138.937 598.324 137.49 598.5 136 598.5V600ZM146.451 597.055L147.236 598.334C150.124 596.56 152.56 594.124 154.334 591.236L153.055 590.451L151.777 589.666C150.25 592.152 148.152 594.25 145.666 595.777L146.451 597.055ZM155.452 584.671L156.91 585.02C157.296 583.408 157.5 581.727 157.5 580H156H154.5C154.5 581.49 154.324 582.937 153.993 584.322L155.452 584.671ZM156 580H157.5V574.086H156H154.5V580H156ZM156 566.2H157.5V554.371H156H154.5V566.2H156ZM156 546.486H157.5V534.657H156H154.5V546.486H156ZM156 526.771H157.5V514.943H156H154.5V526.771H156ZM156 507.057H157.5V495.229H156H154.5V507.057H156ZM156 487.343H157.5V475.514H156H154.5V487.343H156ZM156 467.629H157.5V455.8H156H154.5V467.629H156ZM156 447.914H157.5V436.086H156H154.5V447.914H156ZM156 428.2H157.5V416.371H156H154.5V428.2H156ZM156 408.486H157.5V396.657H156H154.5V408.486H156ZM156 388.771H157.5V376.943H156H154.5V388.771H156ZM156 369.057H157.5V357.229H156H154.5V369.057H156ZM156 349.343H157.5V337.514H156H154.5V349.343H156ZM156 329.629H157.5V317.8H156H154.5V329.629H156ZM156 309.914H157.5V298.086H156H154.5V309.914H156ZM156 290.2H157.5V278.371H156H154.5V290.2H156ZM156 270.486H157.5V258.657H156H154.5V270.486H156ZM156 250.771H157.5V238.943H156H154.5V250.771H156ZM156 231.057H157.5V219.229H156H154.5V231.057H156ZM156 211.343H157.5V199.514H156H154.5V211.343H156ZM156 191.629H157.5V179.8H156H154.5V191.629H156ZM156 171.914H157.5V160.086H156H154.5V171.914H156ZM156 152.2H157.5V140.371H156H154.5V152.2H156ZM156 132.486H157.5V120.657H156H154.5V132.486H156ZM156 112.771H157.5V100.943H156H154.5V112.771H156ZM156 93.0571H157.5V81.2285H156H154.5V93.0571H156ZM156 73.3428H157.5V61.5142H156H154.5V73.3428H156ZM156 53.6285H157.5V41.7999H156H154.5V53.6285H156ZM156 33.9142H157.5V28H156H154.5V33.9142H156ZM156 28H157.5C157.5 26.2732 157.296 24.592 156.91 22.98L155.452 23.3291L153.993 23.6781C154.324 25.0631 154.5 26.51 154.5 28H156ZM153.055 17.5488L154.334 16.7639C152.56 13.876 150.124 11.4398 147.236 9.66639L146.451 10.9446L145.666 12.2228C148.152 13.7495 150.25 15.8477 151.777 18.3338L153.055 17.5488ZM140.671 8.54838L141.02 7.08955C139.408 6.70388 137.727 6.5 136 6.5V8V9.5C137.49 9.5 138.937 9.67583 140.322 10.0072L140.671 8.54838ZM136 8V6.5H128.259V8V9.5H136V8ZM117.937 8V6.5H110.196V8V9.5H117.937V8Z" fill="var(--stroke-0, white)" id="Vector 1292"/>
</svg>