<?xml version="1.0" encoding="utf-8"?>
<svg xmlns="http://www.w3.org/2000/svg" fill="none" height="100%" overflow="visible" preserveAspectRatio="none" style="display: block;" viewBox="0 0 409 61.888" width="100%">
<g id="Group">
<path d="M189.073 35.2425C182.015 47.1057 166.024 45.9194 165.925 30.8433C165.925 24.2197 169.232 18.4859 175.106 18.4859C180.189 18.4859 182.657 22.638 182.657 25.7026H194.058C192.528 0.839466 153.389 2.37179 154.376 31.041C154.524 56.695 183.447 59.3148 194.453 44.733H209.901V52.5924H221.302V9.19309H205.508C205.508 9.19309 193.17 29.4098 188.974 35.2425H189.073ZM209.95 22.0942V35.8851H200.375C204.669 29.0638 209.013 22.0942 209.013 22.0942H209.95ZM223.671 9.19309V18.6836H234.48V52.5924H245.881V18.6836H256.69V9.19309H223.622H223.671ZM285.266 25.7026H270.657V9.19309H259.256V52.6418H270.657V35.292H285.266V52.6418H296.667V9.19309H285.266V25.7026ZM310.882 9.19309H299.481V52.6418H327.613V42.9041H310.882V9.19309ZM363.544 14.2349C357.128 7.2159 344.591 6.67217 336.596 11.1208C325.984 17.0524 323.961 31.387 328.452 41.8661C334.868 55.8053 355.943 57.2388 365.123 46.0182C371.934 37.368 371.885 21.7482 363.544 14.2349ZM351.353 42.8547C346.664 44.1399 341.186 42.5581 339.113 37.8129C336.3 30.9422 337.83 19.1779 346.96 18.5847C352.883 17.7444 357.967 22.5391 358.263 28.3718C358.904 33.9079 357.621 41.1247 351.353 42.8547ZM397.451 9.19309V32.7216L383.779 9.19309H372.23V52.6418H383.779V29.1133L397.5 52.7407L409 52.6418V9.19309H397.451ZM102.06 9.19309H85.131V52.6418H102.06C129.551 53.1361 129.551 8.64936 102.06 9.19309ZM102.603 42.8547H96.5814V18.9802H102.603C113.856 18.7825 113.856 43.0524 102.603 42.8547Z" fill="var(--fill-0, #3743BB)" id="Vector"/>
<path d="M154.327 18.9308V9.19317H124.911V52.6419H154.327V42.9042H136.263V35.4403H152.205V26.3947H136.263V18.9802H154.327V18.9308ZM70.4724 6.96883C62.8717 -3.80685 41.5009 -1.87909 22.7459 11.3186C-18.6138 41.1742 0.782841 79.2845 46.0416 53.1856V11.9612C25.6085 43.2008 10.6045 56.9423 5.86643 45.5734C0.684131 26.7901 49.99 -7.2175 62.8717 9.09431C66.9682 14.927 62.6249 25.4061 53.05 34.8472V48.3415C69.8802 35.2426 77.6289 17.2008 70.4724 6.9194V6.96883Z" fill="var(--fill-0, #3743BB)" id="Vector_2"/>
</g>
</svg>