<?xml version="1.0" encoding="utf-8"?>
<svg xmlns="http://www.w3.org/2000/svg" fill="none" height="100%" overflow="visible" preserveAspectRatio="none" style="display: block;" viewBox="0 0 620 371.256" width="100%">
<path d="M56 0.5H564C594.652 0.5 619.5 25.3482 619.5 56V264C619.5 294.652 594.652 319.5 564 319.5H509.733L509.75 320.017L511.265 365.058C511.429 369.952 505.595 372.604 502.015 369.263L448.841 319.635L448.697 319.5H56C25.3482 319.5 0.5 294.652 0.5 264V56C0.500002 25.5878 24.9612 0.889188 55.2822 0.504883L56 0.5Z" data-figma-bg-blur-radius="20" fill="var(--fill-0, #DAD4FF)" fill-opacity="0.1" id="Rectangle 1798" stroke="url(#paint0_linear_0_1212)"/>
<defs>
<clipPath id="bgblur_0_0_1212_clip_path" transform="translate(20 20)">
      <path d="M56 0.5H564C594.652 0.5 619.5 25.3482 619.5 56V264C619.5 294.652 594.652 319.5 564 319.5H509.733L509.75 320.017L511.265 365.058C511.429 369.952 505.595 372.604 502.015 369.263L448.841 319.635L448.697 319.5H56C25.3482 319.5 0.5 294.652 0.5 264V56C0.500002 25.5878 24.9612 0.889188 55.2822 0.504883L56 0.5Z"/>
</clipPath>
    <linearGradient gradientUnits="userSpaceOnUse" id="paint0_linear_0_1212" x1="278.528" x2="278.528" y1="0" y2="103.891">
<stop stop-color="#CDBEFF"/>
<stop offset="1" stop-color="#CDBEFF" stop-opacity="0.2"/>
</linearGradient>
</defs>
</svg>