<?xml version="1.0" encoding="utf-8"?>
<svg xmlns="http://www.w3.org/2000/svg" fill="none" height="100%" overflow="visible" preserveAspectRatio="none" style="display: block;" viewBox="0 0 114 114" width="100%">
<g id="Group 34694">
<path d="M110.497 57C110.497 27.4546 86.5454 3.50327 57 3.50327C27.4546 3.50328 3.50328 27.4546 3.50327 57C3.50327 86.5454 27.4546 110.497 57 110.497C86.5454 110.497 110.497 86.5454 110.497 57ZM114 57C114 88.4802 88.4802 114 57 114C25.5198 114 0 88.4802 0 57C3.01164e-06 25.5198 25.5198 3.00852e-06 57 0C88.4802 0 114 25.5198 114 57Z" fill="var(--fill-0, white)" id="Vector (Stroke)"/>
<path d="M23.0563 57.1607C23.0563 38.5019 38.2531 23.3773 57.0007 23.3766C75.7472 23.3773 90.9432 38.5015 90.944 57.1607C90.9432 75.8186 75.7472 90.9428 57.0007 90.944C38.2531 90.9428 23.0563 75.8186 23.0563 57.1607ZM34.3529 34.6205C28.5554 40.3922 24.9732 48.355 24.9724 57.1607C24.9732 65.9659 28.5554 73.9291 34.3529 79.7004C40.1519 85.4697 48.1526 89.0358 57.0007 89.0366C65.8469 89.0358 73.8476 85.4697 79.6466 79.7004C85.4437 73.9291 89.0263 65.9659 89.0271 57.1607C89.0263 48.355 85.4437 40.3922 79.6466 34.6205C73.8476 28.8504 65.8469 25.2851 57.0007 25.2844C48.1526 25.2851 40.1519 28.8504 34.3529 34.6205Z" fill="var(--fill-0, white)" id="Vector"/>
<path d="M26.0964 57H57V26.0964H56.9979C39.9315 26.0971 26.0975 39.9319 26.0964 57Z" fill="var(--fill-0, #0066AD)" id="Vector_2"/>
<path d="M87.9036 57H57V87.9036H57.0021C74.0681 87.9029 87.9025 74.0569 87.9036 57Z" fill="var(--fill-0, #0066AD)" id="Vector_3"/>
<path d="M96.2291 25.8672L88.6867 30.8423L92.2557 23.9208C91.328 22.8278 89.9233 21.6788 89.9233 21.6788L83.0379 25.1257L88.0904 17.7392C87.2516 17.037 86.281 16.4529 85.3501 15.7488L78.2783 26.7468C78.2783 26.7468 79.6175 27.5322 81.2562 29.0409L88.5748 25.2661L84.7413 32.4482C85.6036 33.3561 86.371 34.4561 87.1697 35.4379L98.3089 28.5684C98.3085 28.5684 97.6268 27.4999 96.2291 25.8672ZM57.7954 18.3683L61.1894 10.8908L61.4963 20.3704C62.8631 20.431 64.8797 20.9439 64.8797 20.9439L64.2705 7.51728C61.7111 7.14634 59.6689 7.04486 59.6689 7.04486L56.3989 15.1554L53.2058 7.11018C53.2058 7.11018 51.0969 7.31509 48.5371 7.68565L47.9244 21.2157C47.9244 21.2157 49.9449 20.6328 51.3117 20.5726L51.6003 10.9479L55.0028 18.3679L57.7954 18.3683ZM29.0712 22.7644L29.0716 22.7508C29.2363 22.148 29.2304 21.5115 29.0547 20.9117C28.879 20.312 28.5402 19.7725 28.076 19.3528C26.699 18.1004 24.6478 18.058 22.4589 20.2362C22.4589 20.2362 18.4242 24.2699 15.6909 28.2204L25.5069 37.146L32.9047 28.8768C34.5141 27.1041 34.5769 24.5934 33.1047 23.2539C32.0038 22.2546 30.4081 22.1127 29.0712 22.7644ZM19.6027 27.5618C23.0801 23.2668 24.4723 22.0929 24.4723 22.0929C25.384 21.3063 26.0583 21.2375 26.6054 21.7348C27.153 22.2317 27.0839 23.1983 26.4522 23.8928L21.5374 29.32L19.6027 27.5618ZM30.653 27.2009L25.4913 32.9148L23.5512 31.151L28.7132 25.4376C29.3442 24.7428 30.2911 24.5732 30.8269 25.0604C31.3627 25.5476 31.2843 26.5065 30.653 27.2009Z" fill="var(--fill-0, white)" id="Vector_4"/>
</g>
</svg>