<?xml version="1.0" encoding="utf-8"?>
<svg xmlns="http://www.w3.org/2000/svg" fill="none" height="100%" overflow="visible" preserveAspectRatio="none" style="display: block;" viewBox="0 0 292 380.66" width="100%">
<path d="M276 8C276 12.4183 279.582 16 284 16C288.418 16 292 12.4183 292 8C292 3.58172 288.418 0 284 0C279.582 0 276 3.58172 276 8ZM0 372L15 380.66V363.34L0 372ZM14 372V373.5H26V372V370.5H14V372ZM34 372V373.5H46V372V370.5H34V372ZM54 372V373.5H66V372V370.5H54V372ZM74 372V373.5H86V372V370.5H74V372ZM94 372V373.5H106V372V370.5H94V372ZM114 372V373.5H126V372V370.5H114V372ZM134 372V373.5H146V372V370.5H134V372ZM154 372V373.5H166V372V370.5H154V372ZM174 372V373.5H186V372V370.5H174V372ZM194 372V373.5H206V372V370.5H194V372ZM214 372V373.5H226V372V370.5H214V372ZM234 372V373.5H246V372V370.5H234V372ZM254 372V373.5H260V372V370.5H254V372ZM260 372V373.5C262.048 373.5 264.042 373.258 265.954 372.801L265.605 371.342L265.256 369.883C263.571 370.286 261.812 370.5 260 370.5V372ZM272.541 368.466L273.326 369.745C276.752 367.641 279.641 364.752 281.745 361.326L280.466 360.541L279.188 359.757C277.332 362.78 274.78 365.332 271.757 367.188L272.541 368.466ZM283.342 353.605L284.801 353.954C285.258 352.042 285.5 350.048 285.5 348H284H282.5C282.5 349.812 282.286 351.571 281.883 353.256L283.342 353.605ZM284 348H285.5V342H284H282.5V348H284ZM284 334H285.5V322H284H282.5V334H284ZM284 314H285.5V302H284H282.5V314H284ZM284 294H285.5V282H284H282.5V294H284ZM284 274H285.5V262H284H282.5V274H284ZM284 254H285.5V242H284H282.5V254H284ZM284 234H285.5V222H284H282.5V234H284ZM284 214H285.5V202H284H282.5V214H284ZM284 194H285.5V182H284H282.5V194H284ZM284 174H285.5V162H284H282.5V174H284ZM284 154H285.5V142H284H282.5V154H284ZM284 134H285.5V122H284H282.5V134H284ZM284 114H285.5V102H284H282.5V114H284ZM284 94H285.5V82H284H282.5V94H284ZM284 74H285.5V62H284H282.5V74H284ZM284 54H285.5V42H284H282.5V54H284ZM284 34H285.5V22H284H282.5V34H284ZM284 14H285.5V8H284H282.5V14H284Z" fill="var(--stroke-0, white)" id="Vector 1291"/>
</svg>