<?xml version="1.0" encoding="utf-8"?>
<svg xmlns="http://www.w3.org/2000/svg" fill="none" height="100%" overflow="visible" preserveAspectRatio="none" style="display: block;" viewBox="0 0 294 107.66" width="100%">
<g filter="url(#filter0_d_0_1190)" id="Vector 1290">
<path d="M274 8C274 12.4183 277.582 16 282 16C286.418 16 290 12.4183 290 8C290 3.58172 286.418 0 282 0C277.582 0 274 3.58172 274 8ZM4 91L19 99.6603V82.3397L4 91ZM17.6769 91V92.5H29.4V91V89.5H17.6769V91ZM37.2154 91V92.5H48.9385V91V89.5H37.2154V91ZM56.7538 91V92.5H68.4769V91V89.5H56.7538V91ZM76.2923 91V92.5H88.0154V91V89.5H76.2923V91ZM95.8308 91V92.5H107.554V91V89.5H95.8308V91ZM115.369 91V92.5H127.092V91V89.5H115.369V91ZM134.908 91V92.5H146.631V91V89.5H134.908V91ZM154.446 91V92.5H166.169V91V89.5H154.446V91ZM173.985 91V92.5H185.708V91V89.5H173.985V91ZM193.523 91V92.5H205.246V91V89.5H193.523V91ZM213.062 91V92.5H224.785V91V89.5H213.062V91ZM232.6 91V92.5H244.323V91V89.5H232.6V91ZM252.138 91V92.5H258V91V89.5H252.138V91ZM258 91V92.5C260.048 92.5 262.042 92.2582 263.954 91.8008L263.605 90.3419L263.256 88.8831C261.571 89.2862 259.812 89.5 258 89.5V91ZM270.541 87.4665L271.326 88.7447C274.752 86.6413 277.641 83.7516 279.745 80.3264L278.466 79.5414L277.188 78.7565C275.332 81.7799 272.78 84.3316 269.757 86.1882L270.541 87.4665ZM281.342 72.6051L282.801 72.9541C283.258 71.0425 283.5 69.0485 283.5 67H282H280.5C280.5 68.8116 280.286 70.5714 279.883 72.2561L281.342 72.6051ZM282 67H283.5V61.1H282H280.5V67H282ZM282 53.2333H283.5V41.4333H282H280.5V53.2333H282ZM282 33.5667H283.5V21.7667H282H280.5V33.5667H282ZM282 13.9H283.5V8H282H280.5V13.9H282Z" fill="var(--stroke-0, #DAD4FF)"/>
</g>
<defs>
<filter color-interpolation-filters="sRGB" filterUnits="userSpaceOnUse" height="107.66" id="filter0_d_0_1190" width="294" x="0" y="0">
<feFlood flood-opacity="0" result="BackgroundImageFix"/>
<feColorMatrix in="SourceAlpha" result="hardAlpha" type="matrix" values="0 0 0 0 0 0 0 0 0 0 0 0 0 0 0 0 0 0 127 0"/>
<feOffset dy="4"/>
<feGaussianBlur stdDeviation="2"/>
<feComposite in2="hardAlpha" operator="out"/>
<feColorMatrix type="matrix" values="0 0 0 0 0 0 0 0 0 0 0 0 0 0 0 0 0 0 0.25 0"/>
<feBlend in2="BackgroundImageFix" mode="normal" result="effect1_dropShadow_0_1190"/>
<feBlend in="SourceGraphic" in2="effect1_dropShadow_0_1190" mode="normal" result="shape"/>
</filter>
</defs>
</svg>