<?xml version="1.0" encoding="utf-8"?>
<svg xmlns="http://www.w3.org/2000/svg" fill="none" height="100%" overflow="visible" preserveAspectRatio="none" style="display: block;" viewBox="0 0 15.8305 15.8304" width="100%">
<path d="M9.65558 0C11.2671 0.000126188 12.8404 0.635136 14.0179 1.8125C15.1917 2.98635 15.8248 4.56262 15.8245 6.16992L15.8304 9.60547C15.8412 11.2389 15.2112 12.834 14.0228 14.0225C12.8343 15.2109 11.2338 15.8463 9.60577 15.8301H6.22491C4.59144 15.8409 2.99542 15.2109 1.80695 14.0225C0.618752 12.834 -0.015973 11.2333 0.000305476 9.60547V6.22461C-0.0154315 4.59122 0.614254 2.99607 1.79718 1.80762C2.97475 0.635472 4.54291 5.20135e-05 6.1546 0H9.65558ZM11.6253 12.0205C10.5183 12.3895 9.30786 12.4438 8.16827 12.1562C8.00018 12.1129 7.82661 12.1129 7.65851 12.1562C6.51899 12.4438 5.30846 12.3949 4.20148 12.0205C4.10937 11.988 4.01698 12.0798 4.05988 12.1719C4.36378 12.8502 4.78727 13.4696 5.32452 14.0068C5.95389 14.6416 6.72439 15.1297 7.55988 15.4336C7.79313 15.5204 8.04297 15.5203 8.27081 15.4336C9.1065 15.1297 9.87222 14.6417 10.5071 14.0068C11.0444 13.4696 11.4679 12.8557 11.7718 12.1719C11.8147 12.0744 11.7228 11.9828 11.6253 12.0205ZM8.27081 3.89648C8.03757 3.8098 7.78768 3.8097 7.55988 3.89648C6.72442 4.20036 5.95931 4.69395 5.32452 5.32324C4.68959 5.95275 4.20069 6.72384 3.89679 7.55957C3.81003 7.79284 3.81003 8.04267 3.89679 8.27051C4.19523 9.11157 4.68969 9.87639 5.32452 10.5059C5.95393 11.1407 6.7243 11.6297 7.55988 11.9336C7.79309 12.0204 8.04299 12.0203 8.27081 11.9336C9.10654 11.6297 9.8722 11.1408 10.5071 10.5059C11.1419 9.87644 11.63 9.10606 11.9339 8.27051C12.0099 8.04258 12.0099 7.79292 11.9339 7.55957C11.63 6.72389 11.142 5.95814 10.5071 5.32324C9.87767 4.68841 9.10645 4.20035 8.27081 3.89648ZM12.1673 4.06445C12.0806 4.02154 11.9834 4.10853 12.0159 4.20605C12.3849 5.31305 12.4338 6.52355 12.1517 7.66309C12.1083 7.83121 12.1083 8.00473 12.1517 8.17285C12.4393 9.31245 12.3849 10.5228 12.0159 11.6299C11.9835 11.722 12.0752 11.8136 12.1673 11.7705C12.8511 11.4666 13.465 11.0431 14.0023 10.5059C14.637 9.87644 15.1252 9.10604 15.429 8.27051C15.5104 8.04269 15.5103 7.79327 15.429 7.56543C15.1251 6.72975 14.6371 5.96402 14.0023 5.3291C13.465 4.79185 12.8511 4.36835 12.1673 4.06445ZM3.65851 4.05371C2.97478 4.35759 2.36175 4.78116 1.82452 5.31836C1.18967 5.94779 0.7007 6.7181 0.39679 7.55371C0.310011 7.78693 0.310112 8.03683 0.39679 8.26465C0.700692 9.10038 1.18959 9.86604 1.82452 10.501C2.36173 11.0381 2.97482 11.4618 3.65851 11.7656C3.7453 11.8089 3.84339 11.7217 3.81085 11.624C3.44185 10.517 3.39292 9.3066 3.67511 8.16699C3.71841 7.99892 3.71847 7.82529 3.67511 7.65723C3.39836 6.51767 3.44189 5.3186 3.81085 4.19531C3.8434 4.10308 3.75074 4.01039 3.65851 4.05371ZM15.6194 7.98242C15.6247 8.04583 15.6304 8.10945 15.6507 8.17285C15.6351 8.1095 15.6247 8.04578 15.6194 7.98242ZM0.174134 7.65723C0.190411 7.72234 0.201909 7.78743 0.207337 7.85254C0.201911 7.78743 0.195837 7.72234 0.174134 7.65723ZM8.26593 0.401367C8.03262 0.314555 7.78288 0.31459 7.55499 0.401367C6.71926 0.705269 5.9536 1.19416 5.31866 1.8291C4.78161 2.36624 4.35883 2.97951 4.05499 3.66309C4.01158 3.76077 4.10379 3.85342 4.20148 3.81543C5.3085 3.44646 6.51894 3.39751 7.65851 3.67969C7.82658 3.72297 8.00022 3.72306 8.16827 3.67969C9.30789 3.39208 10.5182 3.44641 11.6253 3.81543C11.7174 3.84763 11.8093 3.75522 11.7659 3.66309C11.462 2.97934 11.0385 2.36633 10.5013 1.8291C9.87179 1.1942 9.10162 0.705259 8.26593 0.401367Z" fill="var(--fill-0, black)" id="Left Logo"/>
</svg>