<?xml version="1.0" encoding="utf-8"?>
<svg xmlns="http://www.w3.org/2000/svg" fill="none" height="100%" overflow="visible" preserveAspectRatio="none" style="display: block;" viewBox="0 0 10 11" width="100%">
<path d="M9.44444 9.89978C9.59179 9.89978 9.73309 9.95774 9.83728 10.0609C9.94147 10.1641 10 10.304 10 10.4499C10 10.5958 9.94147 10.7357 9.83728 10.8389C9.73309 10.942 9.59179 11 9.44444 11H0.555556C0.408213 11 0.266905 10.942 0.162718 10.8389C0.0585316 10.7357 0 10.5958 0 10.4499C0 10.304 0.0585316 10.1641 0.162718 10.0609C0.266905 9.95774 0.408213 9.89978 0.555556 9.89978H9.44444ZM5 0C5.14734 0 5.28865 0.0579579 5.39284 0.161124C5.49702 0.264289 5.55556 0.404212 5.55556 0.55011V7.19489L8.21667 4.55986C8.31655 4.46102 8.4507 4.40354 8.59185 4.39913C8.73299 4.39471 8.87054 4.44368 8.97652 4.53609C9.08251 4.6285 9.14898 4.7574 9.16242 4.8966C9.17586 5.03579 9.13527 5.17484 9.04889 5.28546L9.00222 5.33717L5.39056 8.91563C5.29496 9.01043 5.16772 9.06743 5.03271 9.07594C4.89769 9.08444 4.76418 9.04388 4.65722 8.96184L4.605 8.91618L0.996667 5.34927C0.896652 5.25046 0.838413 5.11763 0.833802 4.9778C0.829191 4.83798 0.878553 4.70166 0.971844 4.5966C1.06514 4.49154 1.19535 4.42562 1.33598 4.41225C1.47662 4.39889 1.61712 4.43908 1.72889 4.52465L1.78111 4.57031L4.44444 7.20204V0.55011C4.44444 0.404212 4.50298 0.264289 4.60716 0.161124C4.71135 0.0579579 4.85266 0 5 0Z" fill="var(--fill-0, white)" id="Vector"/>
</svg>