<?xml version="1.0" encoding="utf-8"?>
<svg xmlns="http://www.w3.org/2000/svg" fill="none" height="100%" overflow="visible" preserveAspectRatio="none" style="display: block;" viewBox="0 0 15.8576 15.8576" width="100%">
<g id="Right logo">
<path d="M7.92871 0C9.18293 0 10.2001 1.00779 10.2002 2.25098C10.2002 2.32941 10.1954 2.40703 10.1875 2.4834C10.2355 2.42453 10.2879 2.36835 10.3428 2.31348C11.2219 1.43435 12.6472 1.43435 13.5264 2.31348C14.4051 3.19264 14.4054 4.61808 13.5264 5.49707C13.457 5.56646 13.3823 5.62809 13.3066 5.68652C13.4048 5.67344 13.5047 5.66504 13.6064 5.66504C14.8497 5.66504 15.8574 6.67274 15.8574 7.91602C15.8573 9.15921 14.8497 10.167 13.6064 10.167C13.4955 10.167 13.3869 10.1561 13.2803 10.1406C13.3686 10.2061 13.4551 10.2764 13.5352 10.3564C14.4143 11.2356 14.4143 12.6609 13.5352 13.54C12.656 14.4191 11.2307 14.4191 10.3516 13.54C10.2879 13.4764 10.2302 13.4088 10.1758 13.3398C10.1861 13.4273 10.1934 13.5162 10.1934 13.6064C10.1934 14.8496 9.18551 15.8572 7.94238 15.8574C6.69911 15.8574 5.69043 14.8497 5.69043 13.6064C5.69043 13.5132 5.69699 13.4213 5.70801 13.3311C5.64998 13.4062 5.58942 13.4809 5.52051 13.5498C4.64138 14.4289 3.20917 14.4221 2.32227 13.5352C1.43547 12.6482 1.42951 11.217 2.30859 10.3379C2.36129 10.2852 2.41524 10.2348 2.47168 10.1885C2.39912 10.1956 2.32539 10.2002 2.25098 10.2002C1.00781 10.2001 0 9.18291 0 7.92871C0.000120166 6.67461 1.00788 5.65833 2.25098 5.6582C2.31675 5.6582 2.38195 5.66239 2.44629 5.66797C2.39587 5.62573 2.34621 5.58156 2.29883 5.53418C1.41976 4.65505 1.42659 3.22282 2.31348 2.33594C3.20038 1.44934 4.63171 1.4433 5.51074 2.32227C5.56881 2.38034 5.6225 2.44133 5.67285 2.50391C5.66349 2.42091 5.6582 2.33645 5.6582 2.25098C5.6583 1.00787 6.67462 0.000144688 7.92871 0ZM6.14941 3.64648C6.22663 4.31158 6.00991 5.00651 5.49707 5.51953C5.00025 6.01635 4.33234 6.23637 3.68652 6.17969C4.18472 6.59621 4.50189 7.22495 4.50195 7.92871C4.50195 8.64177 4.17556 9.277 3.66602 9.69336C4.32091 9.62724 5.00148 9.84724 5.50586 10.3516C6.02261 10.8683 6.23736 11.5697 6.15527 12.2393C6.56671 11.7024 7.21372 11.3555 7.94238 11.3555C8.66037 11.3556 9.29783 11.6932 9.70996 12.2168C9.63083 11.5548 9.84361 10.8645 10.3516 10.3564C10.8738 9.83418 11.5888 9.62439 12.2676 9.72266C11.715 9.31249 11.3555 8.65705 11.3555 7.91602C11.3555 7.18958 11.7003 6.54443 12.2344 6.13281C11.5629 6.22278 10.8589 6.01297 10.3428 5.49707C9.84111 4.99541 9.62639 4.31553 9.69727 3.66113C9.28098 4.17343 8.644 4.50195 7.92871 4.50195C7.20685 4.50187 6.56534 4.16697 6.14941 3.64648Z" fill="var(--fill-0, black)" id="Right logo_2"/>
</g>
</svg>