<?xml version="1.0" encoding="utf-8"?>
<svg xmlns="http://www.w3.org/2000/svg" fill="none" height="100%" overflow="visible" preserveAspectRatio="none" style="display: block;" viewBox="0 0 15.8305 15.8304" width="100%">
<path d="M9.6546 0C11.2663 0 12.8403 0.634961 14.0179 1.8125C15.1917 2.98635 15.8248 4.56262 15.8245 6.16992L15.8304 9.60547C15.8412 11.2389 15.2112 12.834 14.0228 14.0225C12.8344 15.2109 11.2337 15.8463 9.60577 15.8301H6.22491C4.59144 15.8409 2.99542 15.2109 1.80695 14.0225C0.618693 12.834 -0.0159734 11.2334 0.000305518 9.60547V6.22461C-0.0154318 4.59118 0.614196 2.99608 1.79718 1.80762C2.9748 0.635428 4.54284 4.35028e-06 6.1546 0H9.6546ZM11.6253 12.0205C10.5183 12.3895 9.30781 12.4438 8.16827 12.1562C8.00004 12.1128 7.82576 12.1128 7.65753 12.1562C6.518 12.4438 5.30746 12.3949 4.2005 12.0205C4.1085 11.9884 4.01696 12.0799 4.05988 12.1719C4.36378 12.8502 4.78727 13.4696 5.32452 14.0068C5.95391 14.6416 6.72437 15.1297 7.55988 15.4336C7.79318 15.5204 8.04292 15.5204 8.27081 15.4336C9.10654 15.1297 9.8722 14.6418 10.5071 14.0068C11.0444 13.4696 11.4679 12.8557 11.7718 12.1719C11.8146 12.0745 11.7227 11.983 11.6253 12.0205ZM8.27081 3.89648C8.03752 3.80974 7.78773 3.80968 7.55988 3.89648C6.7244 4.20034 5.95933 4.69396 5.32452 5.32324C4.68959 5.95275 4.20069 6.72384 3.89679 7.55957C3.81001 7.79288 3.81 8.04263 3.89679 8.27051C4.19525 9.11161 4.68965 9.87637 5.32452 10.5059C5.95397 11.1407 6.72424 11.6297 7.55988 11.9336C7.79315 12.0204 8.04295 12.0203 8.27081 11.9336C9.10654 11.6297 9.8722 11.1408 10.5071 10.5059C11.1419 9.87644 11.63 9.10604 11.9339 8.27051C12.0099 8.04258 12.0099 7.79292 11.9339 7.55957C11.63 6.72387 11.1421 5.95816 10.5071 5.32324C9.87765 4.68837 9.10649 4.20037 8.27081 3.89648ZM12.1673 4.06445C12.0805 4.02137 11.9834 4.10848 12.0159 4.20605C12.3848 5.31303 12.4338 6.52357 12.1517 7.66309C12.1083 7.83123 12.1083 8.00472 12.1517 8.17285C12.4392 9.31244 12.3849 10.5229 12.0159 11.6299C11.9835 11.7221 12.0751 11.8138 12.1673 11.7705C12.8511 11.4666 13.465 11.0431 14.0023 10.5059C14.637 9.87644 15.1252 9.10602 15.429 8.27051C15.5104 8.04271 15.5103 7.79325 15.429 7.56543C15.1251 6.72979 14.6371 5.964 14.0023 5.3291C13.465 4.79185 12.8511 4.36835 12.1673 4.06445ZM3.65851 4.05371C2.97473 4.35761 2.3608 4.7811 1.82355 5.31836C1.18884 5.94772 0.700658 6.71825 0.39679 7.55371C0.310004 7.78695 0.310089 8.03681 0.39679 8.26465C0.700661 9.10029 1.1887 9.86608 1.82355 10.501C2.3608 11.0382 2.97473 11.4617 3.65851 11.7656C3.74526 11.8087 3.8424 11.7216 3.80988 11.624C3.44095 10.517 3.39197 9.30652 3.67413 8.16699C3.71749 7.99884 3.71753 7.82538 3.67413 7.65723C3.39743 6.51778 3.441 5.3185 3.80988 4.19531C3.84241 4.10313 3.75069 4.01056 3.65851 4.05371ZM15.6194 7.98242C15.6247 8.04584 15.6304 8.10943 15.6507 8.17285C15.6351 8.10948 15.6247 8.04579 15.6194 7.98242ZM0.174134 7.65723C0.190405 7.72231 0.20093 7.78745 0.20636 7.85254C0.200936 7.78745 0.195829 7.72231 0.174134 7.65723ZM8.26593 0.401367C8.03268 0.314575 7.78284 0.31465 7.55499 0.401367C6.71926 0.705269 5.9536 1.19416 5.31866 1.8291C4.78153 2.3663 4.35787 2.97941 4.05402 3.66309C4.01083 3.76054 4.10306 3.85286 4.2005 3.81543C5.3075 3.44643 6.51797 3.39756 7.65753 3.67969C7.82576 3.7231 8.00004 3.7231 8.16827 3.67969C9.30784 3.39213 10.5183 3.44643 11.6253 3.81543C11.7174 3.84746 11.8093 3.75517 11.7659 3.66309C11.462 2.97932 11.0385 2.36635 10.5013 1.8291C9.87182 1.19421 9.10159 0.705274 8.26593 0.401367Z" fill="var(--fill-0, black)" id="Left Logo"/>
</svg>