<?xml version="1.0" encoding="utf-8"?>
<svg xmlns="http://www.w3.org/2000/svg" fill="none" height="100%" overflow="visible" preserveAspectRatio="none" style="display: block;" viewBox="0 0 15.8576 15.8576" width="100%">
<g id="Right logo">
<path d="M7.92969 0C9.18371 0.000223344 10.2001 1.00792 10.2002 2.25098C10.2002 2.32943 10.1954 2.40702 10.1875 2.4834C10.2354 2.42472 10.2871 2.36819 10.3418 2.31348C11.2209 1.43435 12.6463 1.43435 13.5254 2.31348C14.4045 3.1926 14.4045 4.61794 13.5254 5.49707C13.4558 5.56667 13.3806 5.62794 13.3047 5.68652C13.4035 5.67328 13.504 5.66504 13.6064 5.66504C14.8497 5.66504 15.8574 6.67274 15.8574 7.91602C15.8573 9.15921 14.8497 10.167 13.6064 10.167C13.4951 10.167 13.3863 10.1553 13.2793 10.1396C13.368 10.2053 13.4547 10.276 13.5352 10.3564C14.4143 11.2356 14.4143 12.6609 13.5352 13.54C12.656 14.4192 11.2307 14.4192 10.3516 13.54C10.2879 13.4764 10.2302 13.4088 10.1758 13.3398C10.1861 13.4274 10.1934 13.5161 10.1934 13.6064C10.1934 14.8497 9.18566 15.8574 7.94238 15.8574C6.69919 15.8573 5.69141 14.8497 5.69141 13.6064C5.69141 13.5135 5.69804 13.422 5.70898 13.332C5.65107 13.407 5.59023 13.4811 5.52148 13.5498C4.6425 14.4288 3.21116 14.4226 2.32422 13.5361C1.43731 12.6492 1.43045 11.217 2.30957 10.3379C2.36262 10.2848 2.41777 10.2351 2.47461 10.1885C2.40111 10.1958 2.32638 10.2002 2.25098 10.2002C1.00781 10.2001 0 9.18291 0 7.92871C0.000120166 6.67461 1.00788 5.65833 2.25098 5.6582C2.31675 5.6582 2.38195 5.66239 2.44629 5.66797C2.39584 5.62571 2.34623 5.58159 2.29883 5.53418C1.41984 4.65519 1.42601 3.22385 2.3125 2.33691C3.19941 1.45001 4.63161 1.44314 5.51074 2.32227C5.56883 2.38035 5.6225 2.44132 5.67285 2.50391C5.66349 2.42091 5.6582 2.33644 5.6582 2.25098C5.6583 1.00778 6.67547 0 7.92969 0ZM6.14746 3.64453C6.22547 4.31045 6.00974 5.00687 5.49609 5.52051C4.9994 6.01695 4.33207 6.23626 3.68652 6.17969C4.18472 6.59621 4.50189 7.22495 4.50195 7.92871C4.50195 8.64276 4.17483 9.27898 3.66406 9.69531C4.32007 9.62805 5.00252 9.84725 5.50781 10.3525C6.02363 10.8686 6.23846 11.5687 6.15723 12.2373C6.5687 11.7016 7.21471 11.3555 7.94238 11.3555C8.65931 11.3555 9.29673 11.6917 9.70898 12.2139C9.63084 11.5527 9.84429 10.8637 10.3516 10.3564C10.8739 9.83411 11.5887 9.6243 12.2676 9.72266C11.715 9.31249 11.3555 8.65705 11.3555 7.91602C11.3555 7.19007 11.6999 6.54544 12.2334 6.13379C11.5618 6.22363 10.8579 6.01315 10.3418 5.49707C9.84055 4.99582 9.62497 4.31699 9.69531 3.66309C9.27907 4.17397 8.64375 4.50183 7.92969 4.50195C7.20666 4.50195 6.56338 4.16638 6.14746 3.64453Z" fill="var(--fill-0, black)" id="Right logo_2"/>
</g>
</svg>