<?xml version="1.0" encoding="utf-8"?>
<svg xmlns="http://www.w3.org/2000/svg" fill="none" height="100%" overflow="visible" preserveAspectRatio="none" style="display: block;" viewBox="0 0 360 290.667" width="100%">
<g id="Group 34681">
<g filter="url(#filter0_f_0_983)" id="Vector 194">
<path d="M263.552 217.278C129.884 289.512 29.8852 178.306 53.4539 102.04C66.2484 70.7958 91.1636 60.3802 148.402 50.637C205.64 40.8939 397.22 145.045 263.552 217.278Z" fill="var(--fill-0, #DFE8FF)"/>
</g>
<g id="Group 34549">
<g id="freepik--character-1--inject-321">
<path d="M77.6093 210.262L69.4843 137.719C69.4234 137.182 69.482 136.64 69.6563 136.126C69.8307 135.612 70.1169 135.139 70.4962 134.738C70.8755 134.337 71.3394 134.016 71.8576 133.798C72.3758 133.579 72.9366 133.467 73.5035 133.468H126.013C126.932 133.467 127.825 133.765 128.542 134.313C129.259 134.861 129.758 135.626 129.956 136.481L147.116 210.262H77.6093Z" fill="var(--fill-0, #263238)" id="Vector" stroke="var(--stroke-0, #263238)" stroke-linecap="round"/>
<path d="M141.82 87.234C141.82 87.234 108.702 104.01 107.792 110.665C106.882 117.32 104.152 210.148 104.152 210.148H191.025C191.025 210.148 182.521 173.737 181.611 169.393C180.701 165.05 179.444 157.538 179.444 157.538L208.066 169.919L212.312 142.733C212.312 142.733 197.362 122.231 187.948 110.944C178.534 99.6564 166.379 90.9793 160.865 89.8237C155.351 88.6682 141.82 87.234 141.82 87.234Z" fill="var(--fill-0, white)" id="Vector_2" stroke="var(--stroke-0, #263238)" stroke-linecap="round"/>
<path d="M179.488 157.539L181.124 144.27L185.717 128.794" id="Vector_3" stroke="var(--stroke-0, #263238)"/>
<path d="M181.121 144.27L182.042 130.548" id="Vector_4" stroke="var(--stroke-0, #263238)"/>
<path d="M170.973 163.534C171.753 163.833 172.489 164.132 173.139 164.432" id="Vector_5" stroke="var(--stroke-0, #263238)"/>
<path d="M141.246 155.373C141.246 155.373 156.619 158.737 167.246 162.204" id="Vector_6" stroke="var(--stroke-0, #263238)"/>
<path d="M159.953 122.077C159.953 122.077 161.491 145.147 162.12 146.612C162.748 148.077 166.106 146.901 166.106 146.901L163.94 133.488" id="Vector_7" stroke="var(--stroke-0, #263238)"/>
<path d="M132.805 135.718L135.112 132.592" id="Vector_8" stroke="var(--stroke-0, #263238)"/>
<path d="M123.453 148.366L130.484 138.853" id="Vector_9" stroke="var(--stroke-0, #263238)"/>
<path d="M151.773 80.5507C151.773 80.5507 142.023 82.6142 140.235 84.3063C138.448 85.9984 135.371 96.7493 135.371 96.7493L140.788 123.947C140.788 123.947 156.279 110.926 158.403 110.348C160.526 109.77 178.759 119.892 178.759 119.892C178.759 119.892 178.152 106.293 173.591 97.616C169.03 88.9389 165.087 85.4722 160.84 82.8618C158.11 81.2867 154.964 80.485 151.773 80.5507V80.5507Z" fill="var(--fill-0, white)" id="Vector_10" stroke="var(--stroke-0, #263238)" stroke-linecap="round"/>
<path d="M151.775 61.7707C151.775 61.7707 149.609 76.8138 149.045 81.7353C148.482 86.6569 145.405 84.3354 147.225 90.4125C149.045 96.4896 159.066 121.365 161.2 119.302C163.335 117.238 170.008 92.6927 171.525 90.949C173.041 89.2053 175.782 85.7902 175.782 85.7902L151.775 61.7707Z" fill="var(--fill-0, white)" id="Vector_11" stroke="var(--stroke-0, #263238)" stroke-linecap="round"/>
<path d="M151.582 63.1526C151.17 66.1035 150.184 73.1401 149.523 78.0616L172.728 85.872L170.865 80.8989L153.824 63.8439L151.582 63.1526Z" fill="var(--fill-0, #263238)" id="Vector_12" stroke="var(--stroke-0, #263238)" stroke-linecap="round"/>
<g id="Vector_13">
<path d="M116.296 102.566C116.296 102.566 104.758 108.643 104.455 111.851C104.152 115.06 82.8858 186.18 84.9767 191.669C87.0675 197.158 97.1317 198.035 97.1317 198.035C97.1317 198.035 106.546 183.28 111.713 180.68C113.977 179.484 116.323 178.433 118.733 177.533L129.664 128.009" fill="var(--fill-0, white)"/>
<path d="M116.296 102.566C116.296 102.566 104.758 108.643 104.455 111.851C104.152 115.06 82.8858 186.18 84.9767 191.669C87.0675 197.158 97.1317 198.035 97.1317 198.035C97.1317 198.035 106.546 183.28 111.713 180.68C113.977 179.484 116.323 178.433 118.733 177.533L129.664 128.009" stroke="var(--stroke-0, #263238)" stroke-linecap="round"/>
</g>
<path d="M191.326 194.28C192.791 195.981 194.536 197.445 196.493 198.614C199.526 200.357 203.481 201.224 200.751 202.38C198.021 203.535 193.763 201.802 191.326 200.316C188.888 198.83 191.326 194.28 191.326 194.28Z" fill="var(--fill-0, white)" id="Vector_14" stroke="var(--stroke-0, #263238)" stroke-linecap="round"/>
<path d="M124.495 182.695C124.495 182.695 124.322 182.478 123.997 182.117C122.174 180.024 119.973 178.259 117.497 176.906C113.846 175.173 102.915 174.843 93.49 185.305C84.065 195.767 88.94 200.926 96.5342 202.659C104.128 204.393 132.685 205.837 139.662 207.003C146.638 208.169 159.714 209.066 164.578 207.003C167.848 205.666 171.193 204.505 174.599 203.526C174.599 203.526 176.116 208.158 178.25 208.158C180.384 208.158 180.092 206.425 180.092 206.425C180.092 206.425 181.305 207.591 182.258 207.591C183.046 207.483 183.792 207.184 184.425 206.724C184.899 207.059 185.447 207.286 186.028 207.386C186.608 207.486 187.205 207.458 187.772 207.302C189.592 206.724 189.593 205.847 189.593 205.847C189.593 205.847 191.759 207.591 192.637 205.847C193.514 204.104 192.019 198.326 191.412 194.281C190.806 190.237 187.772 190.226 187.772 190.226L186.841 189.597C186.375 189.283 185.844 189.068 185.284 188.964C184.723 188.861 184.146 188.873 183.591 188.999L182.031 189.36C182.031 189.36 178.997 188.782 177.47 189.36C175.942 189.938 163.202 197.17 161.372 198.037C159.541 198.904 154.687 198.037 149.227 195.973C143.767 193.91 127.225 187.049 124.495 182.695Z" fill="var(--fill-0, white)" id="Vector_15" stroke="var(--stroke-0, #263238)" stroke-linecap="round"/>
<path d="M174.62 203.535L173.656 199.45" id="Vector_16" stroke="var(--stroke-0, #263238)" stroke-linecap="round"/>
<path d="M102.016 193.415C108.7 184.758 124.495 182.695 124.495 182.695C124.495 182.695 124.322 182.478 123.997 182.117C122.174 180.024 119.973 178.259 117.497 176.906C113.846 175.173 102.915 174.843 93.49 185.305C84.065 195.767 88.94 200.926 96.5341 202.659C97.39 202.855 98.5383 203.051 99.8816 203.237C99.0583 200.668 99.0583 197.263 102.016 193.415Z" fill="var(--fill-0, white)" id="Vector_17" stroke="var(--stroke-0, #263238)" stroke-linecap="round"/>
<path d="M180.092 206.424C180.092 206.424 179.486 194.569 177.352 191.979" id="Vector_18" stroke="var(--stroke-0, #263238)" stroke-linecap="round"/>
<path d="M184.338 206.723C184.338 206.723 185.259 196.302 183.125 191.38" id="Vector_19" stroke="var(--stroke-0, #263238)" stroke-linecap="round"/>
<path d="M189.506 205.847C189.653 201.575 189.245 197.302 188.293 193.125" id="Vector_20" stroke="var(--stroke-0, #263238)" stroke-linecap="round"/>
<path d="M212.321 142.725C212.321 142.725 209.071 138.66 206.991 140.661C204.911 142.663 202.083 159.955 202.083 165.238C202.083 170.52 201.227 170.314 207.836 171.532C214.444 172.749 216.795 173.162 219.362 171.944C221.93 170.727 218.279 162.999 216.372 156.705C214.466 150.411 212.321 142.725 212.321 142.725Z" fill="var(--fill-0, white)" id="Vector_21" stroke="var(--stroke-0, #263238)" stroke-linecap="round"/>
<g id="Vector_22">
<path d="M220.773 54.9089C221.664 54.7278 222.589 54.7668 223.46 55.0222Z" fill="var(--fill-0, white)"/>
<path d="M220.773 54.9089C221.664 54.7278 222.589 54.7668 223.46 55.0222" stroke="var(--stroke-0, #263238)" stroke-linecap="round"/>
</g>
<g id="Vector_23">
<path d="M207.707 72.5119C208.495 71.8334 209.22 71.0912 209.874 70.2936C212.29 67.415 214.283 59.2228 218.345 56.0656" fill="var(--fill-0, white)"/>
<path d="M207.707 72.5119C208.495 71.8334 209.22 71.0912 209.874 70.2936C212.29 67.415 214.283 59.2228 218.345 56.0656" stroke="var(--stroke-0, #263238)" stroke-linecap="round"/>
</g>
<g id="Vector_24">
<path d="M205.086 71.1302C205.086 71.1302 208.336 69.5309 209.246 63.9078Z" fill="var(--fill-0, white)"/>
<path d="M205.086 71.1302C205.086 71.1302 208.336 69.5309 209.246 63.9078" stroke="var(--stroke-0, #263238)" stroke-linecap="round"/>
</g>
<path d="M217.655 99.4513L215.304 113.256C215.304 113.256 234.934 152.267 235.151 159.582C235.367 166.898 232.984 171.159 224.48 171.964C215.976 172.768 213.82 170.932 211.686 162.822C209.551 154.712 208.056 114.061 208.056 114.061C208.056 114.061 204.005 108.778 202.932 106.952C202.093 105.296 201.589 103.504 201.448 101.67C201.448 101.061 199.953 83.9954 199.953 83.9954L215.304 83.7891L217.655 99.4513Z" fill="var(--fill-0, white)" id="Vector_25" stroke="var(--stroke-0, #263238)" stroke-linecap="round"/>
<path d="M216.461 97.7173L208.596 98.8213C208.359 98.8693 208.115 98.8717 207.877 98.8284C207.639 98.7851 207.412 98.697 207.21 98.5692C207.008 98.4413 206.835 98.2764 206.701 98.0841C206.567 97.8917 206.475 97.6758 206.43 97.449L206.04 95.5712C205.989 95.3454 205.987 95.1123 206.032 94.8856C206.078 94.6588 206.17 94.443 206.305 94.2508C206.439 94.0586 206.612 93.8939 206.814 93.7662C207.016 93.6386 207.243 93.5507 207.481 93.5077L215.346 92.414C215.582 92.3644 215.827 92.3605 216.065 92.4026C216.303 92.4446 216.529 92.5317 216.731 92.6587C216.933 92.7857 217.107 92.95 217.241 93.1419C217.375 93.3338 217.467 93.5494 217.512 93.776L217.902 95.6538C217.951 95.8794 217.953 96.1121 217.907 96.3383C217.86 96.5646 217.768 96.7798 217.634 96.9717C217.5 97.1636 217.327 97.3283 217.126 97.4563C216.925 97.5842 216.699 97.6729 216.461 97.7173V97.7173Z" fill="var(--fill-0, white)" id="Vector_26" stroke="var(--stroke-0, #263238)" stroke-linecap="round"/>
<path d="M217.464 101.659L211.755 102.464C211.581 102.497 211.402 102.496 211.229 102.461C211.056 102.427 210.891 102.359 210.746 102.263C210.6 102.167 210.476 102.044 210.382 101.901C210.287 101.758 210.224 101.599 210.195 101.432L209.914 100.07C209.881 99.9055 209.883 99.7362 209.92 99.5722C209.957 99.4082 210.028 99.2529 210.129 99.1155C210.23 98.978 210.359 98.8612 210.508 98.7718C210.657 98.6824 210.823 98.6223 210.997 98.5949L216.706 97.7902C217.057 97.7301 217.418 97.805 217.71 97.9984C218.003 98.1919 218.203 98.4881 218.266 98.8219L218.548 100.184C218.58 100.349 218.578 100.518 218.541 100.682C218.504 100.846 218.433 101.001 218.332 101.139C218.231 101.276 218.102 101.393 217.953 101.482C217.804 101.572 217.638 101.632 217.464 101.659Z" fill="var(--fill-0, white)" id="Vector_27" stroke="var(--stroke-0, #263238)" stroke-linecap="round"/>
<path d="M216.588 86.4406L208.268 87.6065C207.766 87.7006 207.246 87.6013 206.822 87.3304C206.397 87.0596 206.103 86.6394 206.003 86.162L205.603 84.1707C205.554 83.9349 205.554 83.6923 205.604 83.4567C205.654 83.2211 205.752 82.9972 205.893 82.7978C206.034 82.5985 206.215 82.4275 206.425 82.2949C206.636 82.1622 206.872 82.0704 207.119 82.0247L215.439 80.8588C215.939 80.7677 216.456 80.8685 216.878 81.139C217.3 81.4096 217.593 81.828 217.693 82.3032L218.104 84.2945C218.153 84.5303 218.153 84.773 218.103 85.0086C218.053 85.2442 217.955 85.468 217.814 85.6674C217.673 85.8668 217.492 86.0377 217.282 86.1704C217.071 86.3031 216.835 86.3949 216.588 86.4406Z" fill="var(--fill-0, white)" id="Vector_28" stroke="var(--stroke-0, #263238)" stroke-linecap="round"/>
<path d="M217.435 92.3317L209.115 93.4976C208.868 93.5441 208.613 93.5435 208.366 93.496C208.118 93.4486 207.883 93.355 207.674 93.2208C207.464 93.0867 207.285 92.9144 207.146 92.7141C207.006 92.5137 206.91 92.2891 206.862 92.0531L206.45 90.0618C206.401 89.826 206.402 89.5834 206.452 89.3478C206.502 89.1122 206.6 88.8883 206.741 88.6889C206.882 88.4895 207.063 88.3186 207.273 88.186C207.483 88.0533 207.719 87.9614 207.967 87.9157L216.287 86.7498C216.788 86.6586 217.307 86.7591 217.73 87.0294C218.154 87.2998 218.449 87.7183 218.551 88.1943L218.952 90.1856C219.002 90.4215 219.003 90.6646 218.954 90.9007C218.904 91.1368 218.806 91.3612 218.665 91.5609C218.524 91.7606 218.343 91.9316 218.131 92.0639C217.92 92.1962 217.684 92.2873 217.435 92.3317Z" fill="var(--fill-0, white)" id="Vector_29" stroke="var(--stroke-0, #263238)" stroke-linecap="round"/>
<path d="M149.183 53.8058C149.183 53.8058 146.887 31.8499 144.113 24.3799C141.34 16.91 151.491 8.57332 175.465 9.01698C199.439 9.46063 208.203 19.5513 208.658 24.3799C209.113 29.2086 203.122 32.7269 203.122 32.7269L200.826 38.9175L179.614 34.0888C179.614 34.0888 179.614 39.3508 177.772 41.5485C175.931 43.7461 165.325 47.2541 165.325 47.2541C165.325 47.2541 163.017 55.1574 159.334 59.1091C155.651 63.0607 150.104 62.6274 149.649 59.9964C149.344 57.9455 149.189 55.8771 149.183 53.8058Z" fill="var(--fill-0, #263238)" id="Vector_30" stroke="var(--stroke-0, #263238)" stroke-linecap="round"/>
<path d="M154.72 57.7572C154.72 57.7572 156.107 48.9769 148.729 48.9769C141.352 48.9769 143.194 57.7572 145.479 62.1422C147.765 66.5272 150.549 67.4145 150.549 67.4145C150.549 67.4145 164.839 85.4188 169.909 88.0498C174.979 90.6808 177.752 92.4451 181.435 90.6808C185.119 88.9165 196.19 75.7615 198.032 68.7352C199.111 64.8615 199.732 60.8852 199.884 56.8802C199.884 56.8802 204.034 48.5333 204.034 44.5816C204.034 40.63 203.102 32.7267 203.102 32.7267C203.102 32.7267 182.822 25.7004 176.831 27.021C170.84 28.3417 168.067 27.898 170.829 30.1163C173.592 32.3346 174.979 38.8966 173.137 39.7736C171.295 40.6506 160.234 40.6506 160.234 44.6023C160.234 48.5539 161.61 50.7928 159.769 52.9492C158.212 54.6682 156.525 56.2752 154.72 57.7572V57.7572Z" fill="var(--fill-0, white)" id="Vector_31" stroke="var(--stroke-0, #263238)" stroke-linecap="round"/>
<path d="M184.859 71.8416C184.859 71.8416 191.24 72.7083 192.443 71.2638C193.645 69.8193 193.364 58.8207 193.364 58.8207L197.914 52.7437C197.914 52.7437 200.654 51.0103 201.868 52.7437" id="Vector_32" stroke="var(--stroke-0, #263238)"/>
<path d="M182.738 81.0968L186.996 79.6523" id="Vector_33" stroke="var(--stroke-0, #263238)"/>
<path d="M181.174 56.7362C180.74 58.2838 179.614 59.3569 178.65 59.1093C177.685 58.8616 177.274 57.4172 177.707 55.8592C178.14 54.3012 179.267 53.2385 180.22 53.4758C181.174 53.7131 181.607 55.1782 181.174 56.7362Z" fill="var(--fill-0, #263238)" id="Vector_34"/>
<path d="M198.444 59.2623C198.01 60.8202 196.884 61.8829 195.93 61.6353C194.977 61.3877 194.544 59.9432 194.977 58.3853C195.41 56.8273 196.537 55.7646 197.49 56.0019C198.444 56.2392 198.877 57.7043 198.444 59.2623Z" fill="var(--fill-0, #263238)" id="Vector_35"/>
<path d="M176.961 48.9894C176.961 48.9894 181.522 46.0901 188.206 49.8561" id="Vector_36" stroke="var(--stroke-0, #263238)"/>
<path d="M186.398 76.4229L191.306 106.798L208.173 105.632L209.094 74.9578C209.094 74.9578 202.042 72.6466 186.398 76.4229Z" fill="var(--fill-0, white)" id="Vector_37" stroke="var(--stroke-0, #263238)" stroke-linecap="round"/>
</g>
<g id="freepik--device-1--inject-321">
<path d="M169.415 210.313L301.668 210.313V206.712L169.415 206.712V210.313Z" fill="var(--fill-0, #263238)" id="Vector_38" stroke="var(--stroke-0, #263238)" stroke-linecap="round"/>
<path d="M169.427 210.313H215.848V206.712H169.427V210.313Z" fill="var(--fill-0, white)" id="Vector_39" stroke="var(--stroke-0, #263238)" stroke-linecap="round"/>
<path d="M214.289 206.711H300.154L308.507 152.316C308.622 151.735 308.599 151.136 308.439 150.564C308.279 149.992 307.987 149.462 307.584 149.011C307.181 148.561 306.677 148.202 306.109 147.962C305.541 147.722 304.924 147.605 304.303 147.622H228.286C226.92 147.661 225.611 148.151 224.581 149.007C223.552 149.863 222.867 151.032 222.642 152.316L214.289 206.711Z" fill="var(--fill-0, white)" id="Vector_40" stroke="var(--stroke-0, #263238)" stroke-linecap="round"/>
<path d="M215.938 206.711H301.803L310.155 152.317C310.272 151.736 310.25 151.138 310.093 150.566C309.935 149.995 309.645 149.464 309.244 149.013C308.843 148.562 308.341 148.202 307.775 147.959C307.209 147.717 306.594 147.598 305.973 147.612H229.934C228.568 147.651 227.259 148.141 226.23 148.997C225.201 149.853 224.515 151.023 224.29 152.306L215.938 206.711Z" fill="var(--fill-0, white)" id="Vector_41" stroke="var(--stroke-0, #263238)" stroke-linecap="round"/>
<path d="M261.392 175.469C261.64 174.066 262.389 172.786 263.511 171.846C264.634 170.907 266.063 170.364 267.556 170.311C268.239 170.289 268.919 170.414 269.544 170.678C270.169 170.941 270.723 171.335 271.166 171.831C271.609 172.327 271.928 172.912 272.1 173.542C272.272 174.172 272.293 174.831 272.161 175.469C271.912 176.875 271.162 178.156 270.037 179.095C268.912 180.035 267.481 180.577 265.986 180.628C265.304 180.646 264.627 180.518 264.004 180.254C263.382 179.989 262.829 179.594 262.388 179.099C261.947 178.604 261.629 178.021 261.456 177.392C261.284 176.764 261.262 176.107 261.392 175.469V175.469Z" fill="var(--fill-0, #263238)" id="Vector_42" stroke="var(--stroke-0, #263238)" stroke-linecap="round"/>
</g>
<g id="freepik--table-1--inject-321">
<path d="M317.868 210.313H64" id="Vector_43" stroke="var(--stroke-0, #263238)" stroke-linecap="round"/>
</g>
</g>
</g>
<defs>
<filter color-interpolation-filters="sRGB" filterUnits="userSpaceOnUse" height="290.667" id="filter0_f_0_983" width="360" x="-4.87713e-08" y="0">
<feFlood flood-opacity="0" result="BackgroundImageFix"/>
<feBlend in="SourceGraphic" in2="BackgroundImageFix" mode="normal" result="shape"/>
<feGaussianBlur result="effect1_foregroundBlur_0_983" stdDeviation="25"/>
</filter>
</defs>
</svg>