<?xml version="1.0" encoding="utf-8"?>
<svg xmlns="http://www.w3.org/2000/svg" fill="none" height="100%" overflow="visible" preserveAspectRatio="none" style="display: block;" viewBox="0 0 242.791 317.59" width="100%">
<path d="M226.791 8C226.791 12.4183 230.373 16 234.791 16C239.21 16 242.791 12.4183 242.791 8C242.791 3.58172 239.21 0 234.791 0C230.373 0 226.791 3.58172 226.791 8ZM0 308.93L15 317.59V300.27L0 308.93ZM13.414 308.93V310.43H24.9117V308.93V307.43H13.414V308.93ZM32.5769 308.93V310.43H44.0746V308.93V307.43H32.5769V308.93ZM51.7397 308.93V310.43H63.2374V308.93V307.43H51.7397V308.93ZM70.9026 308.93V310.43H82.4003V308.93V307.43H70.9026V308.93ZM90.0654 308.93V310.43H101.563V308.93V307.43H90.0654V308.93ZM109.228 308.93V310.43H120.726V308.93V307.43H109.228V308.93ZM128.391 308.93V310.43H139.889V308.93V307.43H128.391V308.93ZM147.554 308.93V310.43H159.052V308.93V307.43H147.554V308.93ZM166.717 308.93V310.43H178.215V308.93V307.43H166.717V308.93ZM185.88 308.93V310.43H197.377V308.93V307.43H185.88V308.93ZM205.043 308.93V310.43H210.791V308.93V307.43H205.043V308.93ZM210.791 308.93V310.43C212.84 310.43 214.834 310.188 216.746 309.731L216.397 308.272L216.048 306.813C214.363 307.216 212.603 307.43 210.791 307.43V308.93ZM223.333 305.396L224.118 306.675C227.543 304.571 230.433 301.681 232.536 298.256L231.258 297.471L229.98 296.686C228.123 299.71 225.571 302.261 222.548 304.118L223.333 305.396ZM234.133 290.535L235.592 290.884C236.05 288.972 236.291 286.978 236.291 284.93H234.791H233.291C233.291 286.741 233.078 288.501 232.675 290.186L234.133 290.535ZM234.791 284.93H236.291V278.996H234.791H233.291V284.93H234.791ZM234.791 271.083H236.291V259.215H234.791H233.291V271.083H234.791ZM234.791 251.303H236.291V239.434H234.791H233.291V251.303H234.791ZM234.791 231.522H236.291V219.654H234.791H233.291V231.522H234.791ZM234.791 211.741H236.291V199.873H234.791H233.291V211.741H234.791ZM234.791 191.961H236.291V180.092H234.791H233.291V191.961H234.791ZM234.791 172.18H236.291V160.311H234.791H233.291V172.18H234.791ZM234.791 152.399H236.291V140.531H234.791H233.291V152.399H234.791ZM234.791 132.618H236.291V120.75H234.791H233.291V132.618H234.791ZM234.791 112.838H236.291V100.969H234.791H233.291V112.838H234.791ZM234.791 93.057H236.291V81.1886H234.791H233.291V93.057H234.791ZM234.791 73.2763H236.291V61.4079H234.791H233.291V73.2763H234.791ZM234.791 53.4956H236.291V41.6272H234.791H233.291V53.4956H234.791ZM234.791 33.7149H236.291V21.8465H234.791H233.291V33.7149H234.791ZM234.791 13.9342H236.291V8H234.791H233.291V13.9342H234.791Z" fill="var(--stroke-0, white)" id="Vector 1291"/>
</svg>