<?xml version="1.0" encoding="utf-8"?>
<svg xmlns="http://www.w3.org/2000/svg" fill="none" height="100%" overflow="visible" preserveAspectRatio="none" style="display: block;" viewBox="0 0 15.8305 15.8304" width="100%">
<path d="M9.6546 0C11.2663 0 12.8403 0.634942 14.0179 1.8125C15.1917 2.98635 15.8248 4.56262 15.8245 6.16992L15.8304 9.60547C15.8412 11.2389 15.2111 12.834 14.0228 14.0225C12.8344 15.2109 11.2337 15.8463 9.60577 15.8301H6.22491C4.59144 15.8409 2.99542 15.2109 1.80695 14.0225C0.618674 12.834 -0.0159735 11.2334 0.000305532 9.60547V6.22461C-0.015432 4.59117 0.614176 2.99608 1.79718 1.80762C2.9748 0.635424 4.54284 0 6.1546 0H9.6546ZM11.6243 12.0205C10.5175 12.3894 9.30764 12.4437 8.16827 12.1562C8.00004 12.1128 7.82576 12.1128 7.65753 12.1562C6.51798 12.4438 5.30748 12.3949 4.2005 12.0205C4.10848 11.9883 4.01693 12.0799 4.05988 12.1719C4.36378 12.8502 4.78727 13.4696 5.32452 14.0068C5.95392 14.6416 6.72436 15.1297 7.55988 15.4336C7.7932 15.5204 8.04291 15.5204 8.27081 15.4336C9.10654 15.1297 9.8722 14.6418 10.5071 14.0068C11.0444 13.4696 11.4679 12.8556 11.7718 12.1719C11.8146 12.0744 11.7218 11.9826 11.6243 12.0205ZM8.27081 3.89648C8.03751 3.80972 7.78775 3.80968 7.55988 3.89648C6.72439 4.20033 5.95934 4.69396 5.32452 5.32324C4.68959 5.95275 4.20069 6.72384 3.89679 7.55957C3.81 7.79289 3.80999 8.04262 3.89679 8.27051C4.19525 9.11162 4.68963 9.87637 5.32452 10.5059C5.95399 11.1407 6.72422 11.6297 7.55988 11.9336C7.79317 12.0204 8.04294 12.0204 8.27081 11.9336C9.10654 11.6297 9.8722 11.1408 10.5071 10.5059C11.1419 9.87644 11.6301 9.10604 11.9339 8.27051C12.0099 8.04258 12.0099 7.79292 11.9339 7.55957C11.63 6.72386 11.1421 5.95816 10.5071 5.32324C9.87765 4.68835 9.1065 4.20037 8.27081 3.89648ZM12.1673 4.06445C12.0805 4.02131 11.9834 4.10846 12.0159 4.20605C12.3848 5.31303 12.4338 6.52358 12.1517 7.66309C12.1083 7.83123 12.1083 8.00471 12.1517 8.17285C12.4392 9.31243 12.3849 10.5229 12.0159 11.6299C11.9834 11.7221 12.0751 11.8139 12.1673 11.7705C12.8511 11.4666 13.464 11.0431 14.0013 10.5059C14.6362 9.87635 15.1251 9.10623 15.429 8.27051C15.5104 8.04272 15.5103 7.79325 15.429 7.56543C15.1251 6.7297 14.6362 5.96404 14.0013 5.3291C13.4641 4.79196 12.851 4.36831 12.1673 4.06445ZM3.65851 4.05371C2.97473 4.35761 2.3608 4.7811 1.82355 5.31836C1.18883 5.94773 0.700663 6.71824 0.39679 7.55371C0.310001 7.78696 0.310082 8.03681 0.39679 8.26465C0.700666 9.10031 1.18869 9.86607 1.82355 10.501C2.3608 11.0382 2.97473 11.4617 3.65851 11.7656C3.74525 11.8086 3.84239 11.7216 3.80988 11.624C3.44094 10.517 3.39196 9.30653 3.67413 8.16699C3.71748 7.99884 3.71753 7.82537 3.67413 7.65723C3.39743 6.51777 3.44099 5.31851 3.80988 4.19531C3.8424 4.10315 3.75067 4.01062 3.65851 4.05371ZM15.6185 7.98242C15.6238 8.04585 15.6304 8.10942 15.6507 8.17285C15.6351 8.10948 15.6238 8.0458 15.6185 7.98242ZM0.174134 7.65723C0.190406 7.72232 0.200931 7.78745 0.20636 7.85254C0.200936 7.78745 0.19583 7.72232 0.174134 7.65723ZM8.26593 0.401367C8.0327 0.314582 7.78283 0.31467 7.55499 0.401367C6.71926 0.705269 5.9536 1.19416 5.31866 1.8291C4.78151 2.36631 4.35788 2.9794 4.05402 3.66309C4.0108 3.76057 4.10304 3.85292 4.2005 3.81543C5.30752 3.44642 6.51795 3.39754 7.65753 3.67969C7.82576 3.7231 8.00004 3.7231 8.16827 3.67969C9.30772 3.39217 10.5174 3.44653 11.6243 3.81543C11.7166 3.84799 11.8093 3.75534 11.7659 3.66309C11.462 2.97933 11.0385 2.36634 10.5013 1.8291C9.87183 1.19422 9.10157 0.705275 8.26593 0.401367Z" fill="var(--fill-0, black)" id="Left Logo"/>
</svg>