<?xml version="1.0" encoding="utf-8"?>
<svg xmlns="http://www.w3.org/2000/svg" fill="none" height="100%" overflow="visible" preserveAspectRatio="none" style="display: block;" viewBox="0 0 217.06 284.61" width="100%">
<path d="M201.06 8C201.06 12.4183 204.641 16 209.06 16C213.478 16 217.06 12.4183 217.06 8C217.06 3.58172 213.478 0 209.06 0C204.641 0 201.06 3.58172 201.06 8ZM0 275.95L15 284.61V267.29L0 275.95ZM14.3935 275.95V277.45H26.7308V275.95V274.45H14.3935V275.95ZM34.9557 275.95V277.45H47.293V275.95V274.45H34.9557V275.95ZM55.5179 275.95V277.45H67.8552V275.95V274.45H55.5179V275.95ZM76.0801 275.95V277.45H88.4174V275.95V274.45H76.0801V275.95ZM96.6423 275.95V277.45H108.98V275.95V274.45H96.6423V275.95ZM117.204 275.95V277.45H129.542V275.95V274.45H117.204V275.95ZM137.767 275.95V277.45H150.104V275.95V274.45H137.767V275.95ZM158.329 275.95V277.45H170.666V275.95V274.45H158.329V275.95ZM178.891 275.95V277.45H185.06V275.95V274.45H178.891V275.95ZM185.06 275.95V277.45C187.108 277.45 189.102 277.208 191.014 276.751L190.665 275.292L190.316 273.833C188.631 274.236 186.871 274.45 185.06 274.45V275.95ZM197.601 272.416L198.386 273.694C201.811 271.591 204.701 268.701 206.804 265.276L205.526 264.491L204.248 263.706C202.391 266.73 199.84 269.281 196.816 271.138L197.601 272.416ZM208.402 257.555L209.86 257.904C210.318 255.992 210.56 253.998 210.56 251.95H209.06H207.56C207.56 253.761 207.346 255.521 206.943 257.206L208.402 257.555ZM209.06 251.95H210.56V245.851H209.06H207.56V251.95H209.06ZM209.06 237.719H210.56V225.522H209.06H207.56V237.719H209.06ZM209.06 217.39H210.56V205.193H209.06H207.56V217.39H209.06ZM209.06 197.061H210.56V184.864H209.06H207.56V197.061H209.06ZM209.06 176.732H210.56V164.534H209.06H207.56V176.732H209.06ZM209.06 156.403H210.56V144.205H209.06H207.56V156.403H209.06ZM209.06 136.074H210.56V123.876H209.06H207.56V136.074H209.06ZM209.06 115.744H210.56V103.547H209.06H207.56V115.744H209.06ZM209.06 95.4153H210.56V83.2178H209.06H207.56V95.4153H209.06ZM209.06 75.0862H210.56V62.8887H209.06H207.56V75.0862H209.06ZM209.06 54.7571H210.56V42.5595H209.06H207.56V54.7571H209.06ZM209.06 34.4279H210.56V22.2304H209.06H207.56V34.4279H209.06ZM209.06 14.0988H210.56V8H209.06H207.56V14.0988H209.06Z" fill="var(--stroke-0, white)" id="Vector 1291"/>
</svg>