<?xml version="1.0" encoding="utf-8"?>
<svg xmlns="http://www.w3.org/2000/svg" fill="none" height="100%" overflow="visible" preserveAspectRatio="none" style="display: block;" viewBox="0 0 300.013 79" width="100%">
<path d="M44.55 0.439358C47.5402 12.2851 48.8027 23.5733 47.8558 34.3375C58.2716 34.7938 68.5048 36.8554 78.1232 40.6575C78.9372 38.2749 78.4389 35.4866 76.5949 33.594L44.55 0.439358ZM44.0018 34.2531C43.6695 21.8834 40.8953 10.3249 34.3833 0L1.9064 33.594C-0.469145 36.0443 -0.618655 39.9478 1.42465 42.6009C15.0965 37.0582 29.6654 34.1686 44.0018 34.2531ZM77.5418 41.908C68.023 39.1029 57.8231 37.8355 47.3408 38.579C46.56 43.9696 45.1978 49.225 43.1878 54.3283C50.1317 54.0073 57.358 54.3452 64.7504 55.3929L76.5617 43.1754C76.9604 42.7867 77.276 42.3643 77.5418 41.908ZM64.5511 55.6295C46.8923 55.6126 34.3501 60.378 25.2466 67.3232L34.6159 77.0229C37.1575 79.659 41.3272 79.659 43.8689 77.0229L64.5511 55.6295ZM17.2062 58.9923C25.0638 56.39 33.6357 54.8184 42.6728 54.3621C43.4369 49.1067 43.9187 43.9358 44.0184 38.8832C32.5227 40.1675 20.728 43.902 9.21578 50.7121L17.2062 58.9923ZM298.733 49.732C296.358 51.0332 290.162 52.2329 290.677 48.0083L291.657 39.8971H299.564L300.013 35.3177H292.221L292.703 31.3972H285.111L284.63 35.3177H279.098L278.649 39.8971H284.048L282.885 49.4109C281.839 57.7925 293.351 56.7786 297.853 53.72L298.733 49.732ZM259.213 42.7698C259.346 43.6993 273.117 42.8543 270.775 37.2948C267.486 32.1408 259.728 37.2103 259.213 42.7698ZM269.413 31.1099C283.284 32.9688 275.343 49.6982 259.196 47.0451C259.412 54.0073 272.154 50.9656 275.194 49.9179L274.446 54.0749C265.758 57.5559 250.691 57.218 251.405 43.7668C251.887 34.9121 261.206 30.0116 269.413 31.1099ZM160.038 48.1773C159.872 50.5093 164.839 50.8473 168.693 49.6137C171.999 48.5491 174.972 43.0064 172.148 39.3395C169.906 36.416 162.978 36.4498 160.719 39.9478L160.038 48.1773ZM176.883 34.5403C185.804 43.6655 175.454 59.8879 159.407 54.717L158.294 66.2248H150.901L153.526 38.3087C155.669 31.8704 170.952 28.4738 176.883 34.5403ZM106.813 39.7281C102.776 37.2779 101.131 35.3852 101.065 33.3743C101.031 32.2083 102.078 31.1099 103.457 30.6537C107.328 29.4201 110.949 30.8396 113.624 31.8028L116.497 27.4937C112.212 25.6011 103.374 22.948 97.6924 26.3446C90.1173 30.8734 93.9048 38.6297 98.1742 41.2997C100.6 42.8205 105.151 45.7778 104.437 48.2787C103.025 52.9934 94.7521 51.5739 92.7752 50.8642C91.2967 50.3234 90.2169 49.8672 89.2202 49.0729L88.9876 55.2578C90.3664 55.6633 91.9114 55.9337 93.6058 56.2548C108.656 59.0261 121.116 48.4139 106.813 39.7281ZM148.476 55.8492L151.45 25.1786H143.791L140.818 55.8492H148.476ZM189.475 55.8492L192.448 25.1786H184.79L181.817 55.8492H189.475ZM217.134 55.8492L218.895 38.1059C219.992 27.1557 191.734 29.8088 193.395 47.6197C194.209 56.3393 202.848 56.1703 207.233 55.1226L207.682 50.7797C194.392 51.9288 200.688 34.3544 211.669 38.2242L209.709 55.8661H217.134V55.8492ZM247.435 55.8492L249.063 38.3087C249.91 29.1835 234.776 30.8396 229.992 35.9091L230.424 31.4986H222.816L220.423 55.8661H228.065L229.294 42.905C229.959 35.6387 241.803 34.9459 241.222 40.911L239.76 55.883H247.435V55.8492ZM132.429 47.2986L137.861 49.6475C135.801 53.5003 131.88 56.1534 127.312 56.1534C120.634 56.1534 115.218 50.5431 115.218 43.6317C115.218 36.7202 120.634 31.1268 127.312 31.1268C133.99 31.1268 139.406 36.7371 139.406 43.6317C139.406 45.8285 138.808 47.8394 137.861 49.6475L132.894 46.4875C131.831 45.4567 132.346 44.3245 133.674 44.1386L139.323 43.7668L133.558 43.2261C132.213 43.0571 131.98 41.7221 132.611 41.1983L137.828 37.6665L132.063 40.2013C131.166 40.3872 130.468 39.7957 130.701 38.9339L133.525 33.0026L129.771 38.2242C129.04 38.917 128.043 38.6128 127.927 37.5144L127.345 31.2113L126.764 37.5144C126.648 38.5959 125.651 38.917 124.92 38.2242L121.165 33.0026L123.99 38.9339C124.206 39.7957 123.508 40.3872 122.627 40.2013L116.863 37.6665L122.079 41.1983C122.71 41.7221 122.478 43.0571 121.132 43.2261L115.368 43.7668L121.033 44.1386C122.345 44.3245 122.86 45.4567 121.797 46.4875L116.83 49.6644L122.262 47.2986C123.757 46.8424 124.305 48.0421 123.74 49.1236L121.332 54.379L124.721 49.6137C125.302 48.6505 126.631 48.6167 126.814 49.9179L127.362 56.0689L127.893 49.9179C128.06 48.6167 129.389 48.6505 129.987 49.6137L133.375 54.379L130.967 49.1236C130.385 48.0421 130.933 46.8424 132.429 47.2986Z" fill="var(--fill-0, white)" id="Vector"/>
</svg>